<?xml version="1.0" standalone="no"?>
<!DOCTYPE svg PUBLIC "-//W3C//DTD SVG 20010904//EN"
 "http://www.w3.org/TR/2001/REC-SVG-20010904/DTD/svg10.dtd">
<svg version="1.0" xmlns="http://www.w3.org/2000/svg"
 width="700.000000pt" height="700.000000pt" viewBox="0 0 700.000000 700.000000"
 preserveAspectRatio="xMidYMid meet">
<metadata>
Created by potrace 1.14, written by Peter Selinger 2001-2017
</metadata>
<g transform="translate(0.000000,700.000000) scale(0.100000,-0.100000)"
fill="#000000" stroke="none">
<path d="M253 6986 c-102 -32 -176 -97 -222 -196 l-26 -55 0 -3235 0 -3235 26
-56 c37 -79 90 -133 167 -171 l67 -33 3235 0 3235 0 67 33 c77 38 130 92 167
171 l26 56 0 3235 0 3235 -33 67 c-38 77 -92 130 -171 167 l-56 26 -3220 2
c-2643 1 -3228 -1 -3262 -11z m3389 -1659 c68 -33 121 -90 157 -166 l26 -56 3
-1402 2 -1403 1095 0 1095 0 0 633 c0 725 -4 689 86 786 73 79 132 105 239
105 67 0 89 -4 137 -27 71 -35 140 -110 167 -183 21 -54 21 -72 21 -879 0
-819 0 -825 -21 -882 -28 -72 -94 -144 -168 -180 l-56 -28 -1505 0 -1505 0
-46 23 c-75 37 -125 87 -161 160 l-33 67 -3 1402 -2 1403 -1095 0 -1095 0 0
-632 c0 -720 3 -690 -83 -784 -92 -101 -209 -134 -338 -95 -61 19 -81 31 -129
79 -40 41 -63 74 -78 115 -22 57 -22 62 -22 882 0 817 0 825 21 881 23 62 80
131 136 165 80 50 19 48 1608 46 l1490 -2 57 -28z"/>
</g>
</svg>
