<svg xmlns="http://www.w3.org/2000/svg"><style>:root svg:not(:target){display:none}</style><svg fill="none" id="button-burger" viewBox="0 0 33 31"><path d="M30.167 24.896a2.562 2.562 0 0 1 .246 5.113l-.246.012H2.833a2.562 2.562 0 0 1-.246-5.113l.246-.012h27.334Zm0-11.959a2.563 2.563 0 0 1 0 5.126H2.833a2.563 2.563 0 0 1 0-5.125h27.334Zm0-11.958a2.562 2.562 0 1 1 0 5.125H2.833a2.562 2.562 0 0 1 0-5.125h27.334Z" fill="#55228B"></path></svg><svg fill="none" id="icon-close" viewBox="0 0 20 20"><path d="M.293 18.291a1 1 0 1 0 1.414 1.414L10 11.413l8.292 8.292a1 1 0 1 0 1.414-1.414l-8.292-8.292 8.292-8.292A1 1 0 1 0 18.291.293L9.999 8.585 1.707.293A1 1 0 1 0 .293 1.707L8.585 10 .293 18.291z" fill="#fff"></path></svg></svg>