<svg xmlns="http://www.w3.org/2000/svg"><style>:root svg:not(:target){display:none}</style><svg fill="none" id="button-burger" viewBox="0 0 33 31"><path d="M30.167 24.896a2.562 2.562 0 0 1 .246 5.113l-.246.012H2.833a2.562 2.562 0 0 1-.246-5.113l.246-.012h27.334Zm0-11.959a2.563 2.563 0 0 1 0 5.126H2.833a2.563 2.563 0 0 1 0-5.125h27.334Zm0-11.958a2.562 2.562 0 1 1 0 5.125H2.833a2.562 2.562 0 0 1 0-5.125h27.334Z" fill="#55228B"></path></svg><svg fill="none" id="icon-close" viewBox="0 0 20 20"><path d="M.293 18.291a1 1 0 1 0 1.414 1.414L10 11.413l8.292 8.292a1 1 0 1 0 1.414-1.414l-8.292-8.292 8.292-8.292A1 1 0 1 0 18.291.293L9.999 8.585 1.707.293A1 1 0 1 0 .293 1.707L8.585 10 .293 18.291z" fill="#fff"></path></svg><svg fill="none" id="logo" viewBox="0 0 91 54"><path d="M41.293 6.706v-.5H8.913V19c0 .691-.384 1.405-1.168 1.964-.786.56-1.877.889-3.038.889-1.16 0-2.253-.33-3.038-.89C.885 20.406.5 19.692.5 19V3.353c0-.691.385-1.406 1.169-1.964C2.454.83 3.546.5 4.707.5H45.5c1.16 0 2.253.33 3.038.89.784.557 1.169 1.272 1.169 1.963v28.441H82.087V19c0-.691.384-1.405 1.168-1.964.785-.56 1.877-.889 3.038-.889 1.16 0 2.253.33 3.038.89.784.558 1.169 1.272 1.169 1.963v15.647c0 .691-.385 1.406-1.169 1.964-.785.56-1.877.889-3.038.889H45.5c-1.16 0-2.253-.33-3.038-.89-.784-.557-1.169-1.272-1.169-1.963V6.706Z" fill="url(#logo_0)" stroke="#fff"></path><path d="M3.085 51v-7.7h2.761l1.53 6.71h.197V43.3h1.43V51h-2.76l-1.53-6.71h-.198V51h-1.43Zm9.9.154c-.543 0-1.024-.114-1.441-.341a2.535 2.535 0 0 1-.969-.979c-.227-.425-.34-.924-.34-1.496v-.132c0-.572.113-1.067.34-1.485.228-.425.547-.752.958-.979.41-.235.887-.352 1.43-.352.535 0 1 .121 1.397.363.396.235.704.565.924.99.22.418.33.906.33 1.463v.473h-3.972c.015.374.155.678.418.913.264.235.587.352.968.352.39 0 .675-.084.858-.253.184-.169.323-.356.419-.561l1.133.594c-.103.19-.254.4-.452.627-.19.22-.447.41-.77.572-.322.154-.733.231-1.231.231Zm-1.332-3.509h2.553a1.08 1.08 0 0 0-.386-.759c-.22-.19-.51-.286-.869-.286-.373 0-.67.095-.89.286a1.23 1.23 0 0 0-.408.759ZM17.267 51l-.77-5.456h1.375l.484 4.521h.198l.704-4.521h2.222l.704 4.521h.198l.484-4.521h1.375L23.47 51h-2.3l-.703-4.521h-.198L19.565 51h-2.3Zm11.486 0-1.012-7.7h1.441l.748 6.688h.198l.968-6.688h2.508l.968 6.688h.198l.748-6.688h1.441L35.946 51h-2.508l-.99-6.842h-.198L31.26 51h-2.508Zm10.94.154c-.388 0-.736-.066-1.044-.198a1.792 1.792 0 0 1-.738-.594c-.175-.264-.263-.583-.263-.957s.087-.686.264-.935c.183-.257.432-.447.747-.572.323-.132.69-.198 1.1-.198h1.496v-.308a.848.848 0 0 0-.241-.627c-.162-.169-.419-.253-.77-.253-.345 0-.602.08-.77.242a1.092 1.092 0 0 0-.33.605l-1.276-.429c.088-.279.227-.532.418-.759.198-.235.458-.422.78-.561.33-.147.73-.22 1.2-.22.718 0 1.286.18 1.704.539.419.36.627.88.627 1.562v2.035c0 .22.103.33.309.33h.44V51h-.925c-.27 0-.495-.066-.67-.198a.627.627 0 0 1-.264-.528v-.011h-.21c-.029.088-.095.205-.198.352-.102.14-.264.264-.484.374-.22.11-.52.165-.901.165Zm.242-1.122c.39 0 .705-.106.947-.319.249-.22.373-.51.373-.869v-.11h-1.396c-.257 0-.459.055-.605.165a.544.544 0 0 0-.22.462c0 .198.076.36.23.484.154.125.378.187.672.187ZM45.19 51l-1.738-5.456h1.474l1.265 4.444h.198l1.265-4.444h1.474L47.39 51h-2.2Zm7.208.154c-.543 0-1.023-.114-1.441-.341a2.535 2.535 0 0 1-.968-.979c-.228-.425-.341-.924-.341-1.496v-.132c0-.572.113-1.067.34-1.485.228-.425.547-.752.958-.979.41-.235.887-.352 1.43-.352.535 0 1 .121 1.397.363.396.235.704.565.924.99.22.418.33.906.33 1.463v.473h-3.971c.014.374.154.678.418.913s.586.352.968.352c.388 0 .674-.084.858-.253.183-.169.322-.356.418-.561l1.133.594c-.103.19-.253.4-.451.627-.191.22-.448.41-.77.572-.323.154-.734.231-1.232.231Zm-1.331-3.509h2.552a1.08 1.08 0 0 0-.385-.759c-.22-.19-.51-.286-.87-.286-.373 0-.67.095-.89.286a1.23 1.23 0 0 0-.407.759Zm10.582 3.509c-.543 0-1.03-.11-1.463-.33a2.474 2.474 0 0 1-1.023-.957c-.25-.418-.374-.92-.374-1.507v-.176c0-.587.125-1.089.374-1.507.25-.418.59-.737 1.023-.957.433-.22.92-.33 1.463-.33s1.03.11 1.463.33c.433.22.774.539 1.023.957.25.418.374.92.374 1.507v.176c0 .587-.124 1.089-.374 1.507-.25.418-.59.737-1.023.957-.433.22-.92.33-1.463.33Zm0-1.232c.425 0 .777-.136 1.056-.407.279-.279.418-.675.418-1.188v-.11c0-.513-.14-.906-.418-1.177-.271-.279-.623-.418-1.056-.418-.425 0-.777.14-1.056.418-.279.271-.418.664-.418 1.177v.11c0 .513.14.91.418 1.188.279.271.63.407 1.056.407ZM66.508 51v-4.312h-1.386v-1.144h1.386v-1.012c0-.374.11-.671.33-.891.227-.227.52-.341.88-.341h1.43v1.144h-.946c-.205 0-.308.11-.308.33v.77h1.43v1.144h-1.43V51h-1.386Zm5.981 0 2.024-7.7h2.53l2.024 7.7h-1.496l-.418-1.694h-2.75L73.985 51h-1.496Zm2.255-3.036h2.068l-.935-3.751h-.198l-.935 3.751ZM80.033 51v-5.456h1.364v.616h.198a.876.876 0 0 1 .396-.484c.19-.103.41-.154.66-.154h.66v1.232h-.682c-.352 0-.642.095-.87.286-.227.183-.34.47-.34.858V51h-1.386Zm6.451 0c-.36 0-.653-.11-.88-.33-.22-.227-.33-.528-.33-.902v-3.08H83.91v-1.144h1.364V43.85h1.386v1.694h1.496v1.144H86.66v2.838c0 .22.103.33.308.33h1.056V51h-1.54Z" fill="#BF2585"></path><path d="M3.085 51h-1v1h1v-1Zm0-7.7v-1h-1v1h1Zm2.761 0 .975-.222-.177-.778h-.798v1Zm1.53 6.71-.976.222.178.778h.797v-1Zm.197 0v1h1v-1h-1Zm0-6.71v-1h-1v1h1Zm1.43 0h1v-1h-1v1Zm0 7.7v1h1v-1h-1Zm-2.76 0-.976.222.178.778h.797v-1Zm-1.53-6.71.975-.222-.177-.778h-.798v1Zm-.198 0v-1h-1v1h1Zm0 6.71v1h1v-1h-1Zm-.43 0v-7.7h-2V51h2Zm-1-6.7h2.761v-2h-2.76v2Zm1.786-.778 1.53 6.71 1.95-.444-1.53-6.71-1.95.444Zm2.504 7.488h.198v-2h-.198v2Zm1.198-1V43.3h-2v6.71h2Zm-1-5.71h1.43v-2h-1.43v2Zm.43-1V51h2v-7.7h-2Zm1 6.7h-2.76v2h2.76v-2Zm-1.786.778-1.529-6.71-1.95.444 1.53 6.71 1.95-.444ZM4.713 43.29h-.198v2h.198v-2Zm-1.198 1V51h2v-6.71h-2Zm1 5.71h-1.43v2h1.43v-2Zm7.029.813-.497.868.01.006.009.005.477-.879Zm-.969-.979-.881.471.004.01.006.009.871-.49Zm0-3.113.879.478.003-.007-.882-.471Zm.958-.979.484.875.012-.007-.496-.868Zm2.827.011-.522.853.012.007.51-.86Zm.924.99-.889.46.004.006.885-.466Zm.33 1.936v1h1v-1h-1Zm-3.972 0v-1h-1.04l.041 1.04 1-.04Zm2.663.451.464-.886-.93-.487-.441.952.907.421Zm1.133.594.88.474.48-.89-.896-.47-.464.886Zm-.452.627-.754-.657-.001.002.755.655Zm-.77.572.431.902.008-.004.009-.004-.447-.894Zm-2.563-3.278-.987-.16-.188 1.16h1.175v-1Zm2.553 0v1h1.097l-.102-1.093-.995.093Zm-.386-.759-.654.756.006.005.006.005.642-.766Zm-.835 3.268c-.4 0-.712-.083-.964-.22l-.955 1.758c.584.317 1.233.462 1.918.462v-2Zm-.945-.21a1.536 1.536 0 0 1-.592-.6l-1.744.98a3.534 3.534 0 0 0 1.343 1.357l.993-1.736Zm-.583-.581c-.136-.256-.223-.587-.223-1.025h-2c0 .706.142 1.372.46 1.967l1.763-.942Zm-.223-1.025v-.132h-2v.132h2Zm0-.132c0-.439.087-.763.22-1.007l-1.757-.956c-.322.592-.462 1.258-.462 1.963h2Zm.223-1.014c.14-.26.323-.444.56-.575l-.969-1.75a3.368 3.368 0 0 0-1.354 1.383l1.763.942Zm.572-.582c.238-.136.539-.22.934-.22v-2c-.691 0-1.344.15-1.927.484l.993 1.736Zm.934-.22c.38 0 .659.084.875.216l1.043-1.706c-.576-.352-1.228-.51-1.918-.51v2Zm.887.223c.228.136.408.324.545.59l1.777-.92a3.41 3.41 0 0 0-1.303-1.39l-1.02 1.72Zm.549.596c.132.25.215.573.215.997h2c0-.69-.137-1.343-.446-1.929l-1.77.932Zm.215.997v.473h2v-.473h-2Zm1-.527h-3.972v2h3.972v-2Zm-4.97 1.04c.024.627.272 1.193.752 1.62l1.329-1.494c-.048-.043-.079-.085-.083-.205l-1.999.078Zm.752 1.62c.462.411 1.027.605 1.632.605v-2c-.157 0-.237-.041-.303-.1l-1.329 1.495Zm1.632.605c.505 0 1.088-.105 1.536-.517l-1.354-1.472c.04-.038.066-.04.042-.033a.839.839 0 0 1-.224.022v2Zm1.536-.517c.27-.249.492-.54.647-.876l-1.813-.842a.785.785 0 0 1-.188.246l1.354 1.472Zm-.724-.411 1.133.594.929-1.772-1.133-.594-.929 1.772Zm.717-.766a2.569 2.569 0 0 1-.325.444l1.509 1.314c.229-.264.428-.534.577-.81l-1.761-.948Zm-.326.446c-.087.1-.23.216-.462.333l.895 1.788a3.448 3.448 0 0 0 1.078-.811l-1.511-1.31Zm-.445.325c-.146.07-.397.133-.801.133v2c.592 0 1.163-.09 1.662-.329l-.861-1.805Zm-2.133-1.376h2.553v-2h-2.553v2Zm3.548-1.093a2.078 2.078 0 0 0-.738-1.432l-1.285 1.532a.101.101 0 0 1 .014.014.022.022 0 0 1 .003.005c.001.002.01.02.015.067l1.991-.186Zm-.726-1.422c-.441-.382-.982-.53-1.524-.53v2c.092 0 .147.012.175.021a.106.106 0 0 1 .04.02l1.31-1.51Zm-1.524-.53c-.544 0-1.097.142-1.545.53l1.31 1.512c0-.001.009-.009.038-.018a.66.66 0 0 1 .197-.024v-2Zm-1.545.53c-.415.36-.655.832-.74 1.354l1.974.322c.018-.109.05-.142.075-.164l-1.31-1.512Zm5.86 4.87-.99.14.12.86h.87v-1Zm-.77-5.456v-1h-1.151l.16 1.14.99-.14Zm1.375 0 .994-.106-.096-.894h-.898v1Zm.484 4.521-.995.106.096.894h.899v-1Zm.198 0v1h.856l.132-.846-.988-.154Zm.704-4.521v-1H18.4l-.131.846.988.154Zm2.222 0 .988-.154-.132-.846h-.856v1Zm.704 4.521-.988.154.131.846h.857v-1Zm.198 0v1h.898l.096-.894-.994-.106Zm.484-4.521v-1h-.899l-.096.894.995.106Zm1.375 0 .99.14.16-1.14h-1.15v1ZM23.47 51v1h.868l.122-.86-.99-.14Zm-2.3 0-.987.154.131.846h.857v-1Zm-.703-4.521.988-.154-.132-.846h-.856v1Zm-.198 0v-1h-.857l-.131.846.988.154ZM19.565 51v1h.856l.132-.846-.988-.154Zm-1.31-.14-.77-5.456-1.98.28.77 5.456 1.98-.28Zm-1.76-4.316h1.376v-2h-1.375v2Zm.381-.894.484 4.521 1.989-.212-.484-4.521-1.989.212Zm1.479 5.415h.198v-2h-.198v2Zm1.186-.846.704-4.521-1.976-.308-.704 4.521 1.976.308Zm-.284-3.675h2.222v-2h-2.222v2Zm1.234-.846.704 4.52 1.976-.307-.704-4.52-1.976.307Zm1.692 5.367h.198v-2h-.198v2Zm1.192-.894.484-4.52-1.989-.213-.484 4.52 1.989.213Zm-.51-3.627h1.375v-2h-1.375v2Zm.385-1.14-.77 5.456 1.98.28.77-5.456-1.98-.28ZM23.47 50h-2.3v2h2.3v-2Zm-1.311.846-.704-4.52-1.976.307.704 4.52 1.976-.307Zm-1.692-5.367h-.198v2h.198v-2Zm-1.186.846-.704 4.521 1.976.308.704-4.521-1.976-.308ZM19.565 50h-2.3v2h2.3v-2Zm9.187 1-.991.13.114.87h.877v-1Zm-1.012-7.7v-1H26.6l.149 1.13.991-.13Zm1.441 0 .994-.111-.1-.889h-.894v1Zm.748 6.688-.994.111.1.889h.894v-1Zm.198 0v1h.866l.124-.857-.99-.143Zm.968-6.688v-1h-.865l-.125.857.99.143Zm2.508 0 .99-.143-.124-.857h-.866v1Zm.968 6.688-.99.143.124.857h.866v-1Zm.198 0v1h.895l.099-.889-.994-.111Zm.748-6.688v-1h-.894l-.1.889.994.111Zm1.441 0 .992.13.148-1.13h-1.14v1ZM35.946 51v1h.877l.115-.87-.992-.13Zm-2.508 0-.99.143.124.857h.866v-1Zm-.99-6.842.99-.143-.124-.857h-.866v1Zm-.198 0v-1h-.866l-.123.857.99.143ZM31.26 51v1h.866l.124-.857-.99-.143Zm-1.516-.13-1.012-7.7-1.983.26 1.012 7.7 1.983-.26ZM27.74 44.3h1.441v-2h-1.44v2Zm.447-.889.748 6.688 1.988-.222-.748-6.688-1.988.222Zm1.742 7.577h.198v-2h-.198v2Zm1.188-.857.968-6.688-1.98-.286-.968 6.688 1.98.286Zm-.022-5.831h2.508v-2h-2.508v2Zm1.519-.857.968 6.688 1.979-.286-.968-6.688-1.98.286Zm1.957 7.545h.198v-2h-.198v2Zm1.192-.889.748-6.688-1.988-.222-.748 6.688 1.988.222Zm-.246-5.799h1.441v-2h-1.44v2Zm.45-1.13-1.012 7.7 1.983.26 1.012-7.7-1.983-.26Zm-.02 6.83h-2.509v2h2.508v-2Zm-1.52.857-.99-6.842-1.978.286.99 6.842 1.979-.286Zm-1.979-7.699h-.198v2h.198v-2Zm-1.188.857-.99 6.842 1.98.286.99-6.842-1.98-.286Zm0 5.985h-2.508v2h2.508v-2Zm7.387.956-.412.911.01.004.009.004.394-.919Zm-.736-.594-.833.555.01.013.009.013.813-.581Zm0-1.892-.814-.581-.004.004.817.577Zm.747-.572.368.93.011-.005-.379-.925Zm2.596-.198v1h1v-1h-1Zm-.241-.935-.723.691.008.008.007.008.708-.707Zm-1.54-.011.674.739.008-.008.009-.008-.692-.723Zm-.33.605-.32.948 1.071.36.228-1.106-.98-.202Zm-1.276-.429-.954-.301-.296.936.93.313.32-.948Zm.418-.759-.765-.645-.002.002.767.643Zm.78-.561.397.918.01-.004-.407-.914Zm2.904.319-.651.758.651-.758Zm1.375 3.927h1v-1h-1v1Zm0 1.144v1h1v-1h-1Zm-1.595-.198-.6.8.6-.8Zm-.264-.539h1v-1h-1v1Zm-.209 0v-1h-.72l-.228.684.948.316Zm-.198.352.806.593.007-.01.007-.01-.82-.573Zm-.484.374.448.894-.448-.894Zm.286-1.276.66.751.002-.001-.662-.75Zm.374-.979h1v-1h-1v1Zm-2.002.165.6.8-.6-.8Zm.011.946-.629.777.63-.777Zm.43.309c-.275 0-.486-.046-.652-.117l-.787 1.838c.45.193.936.279 1.439.279v-2Zm-.633-.11a.794.794 0 0 1-.336-.263l-1.627 1.162c.293.41.682.718 1.138.924l.825-1.822Zm-.317-.237c-.049-.072-.096-.19-.096-.402h-2c0 .535.128 1.056.431 1.512l1.665-1.11Zm-.096-.402c0-.215.048-.313.08-.358l-1.633-1.154c-.32.453-.447.979-.447 1.512h2Zm.077-.354a.634.634 0 0 1 .302-.223l-.735-1.86c-.48.19-.89.495-1.194.92l1.627 1.163Zm.313-.227c.183-.075.418-.124.721-.124v-2a3.88 3.88 0 0 0-1.478.272l.757 1.852Zm.721-.124h1.496v-2H39.76v2Zm2.496-1v-.308h-2v.308h2Zm0-.308c0-.486-.161-.961-.534-1.334l-1.415 1.414a.188.188 0 0 1-.044-.07c-.01-.025-.007-.033-.007-.01h2Zm-.519-1.318c-.428-.447-1.005-.562-1.492-.562v2a.808.808 0 0 1 .144.013s-.012-.004-.031-.015a.328.328 0 0 1-.066-.054l1.445-1.382Zm-1.492-.562c-.481 0-1.035.11-1.462.52l1.383 1.445a.275.275 0 0 1-.054.04c-.014.008-.022.01-.019.01a.558.558 0 0 1 .151-.015v-2Zm-1.445.504a2.09 2.09 0 0 0-.635 1.141l1.959.404a.223.223 0 0 1 .02-.061.021.021 0 0 1 .005-.008l-1.349-1.476Zm.663.395-1.276-.429-.637 1.896 1.276.429.637-1.896Zm-.64.82c.047-.152.122-.289.23-.417l-1.533-1.286a3.203 3.203 0 0 0-.605 1.1l1.907.603Zm.228-.415c.084-.1.212-.201.413-.288l-.793-1.836a3.076 3.076 0 0 0-1.149.834l1.529 1.29Zm.423-.292c.17-.076.423-.134.792-.134v-2c-.569 0-1.115.088-1.605.306l.813 1.828Zm.792-.134c.554 0 .866.136 1.054.297l1.303-1.516c-.648-.558-1.473-.781-2.357-.781v2Zm1.054.297c.145.126.279.338.279.804h2c0-.898-.285-1.727-.976-2.32l-1.303 1.516Zm.279.804v2.035h2v-2.035h-2Zm0 2.035c0 .248.056.62.346.93.301.323.686.4.962.4v-2a.71.71 0 0 1 .5.235c.186.2.191.407.191.435h-2Zm1.307 1.33h.44v-2h-.44v2Zm-.56-1V51h2v-1.144h-2Zm1 .144h-.924v2h.924v-2Zm-.924 0a.33.33 0 0 1-.088-.009c-.004 0 .005.001.017.011l-1.2 1.6c.387.29.835.398 1.271.398v-2Zm-.07.002a.35.35 0 0 1 .096.122.35.35 0 0 1 .04.15h-2c0 .535.236 1.007.664 1.328l1.2-1.6Zm.136.272v-.011h-2v.011h2Zm-1-1.011h-.21v2h.21v-2Zm-1.158.684a.355.355 0 0 1 .013-.034l-.008.014c-.012.022-.035.06-.074.114l1.639 1.148c.116-.167.25-.38.327-.61l-1.897-.632Zm-.055.075c.013-.017.016-.016-.004 0a.76.76 0 0 1-.122.073l.895 1.788c.305-.152.614-.366.842-.675l-1.61-1.186Zm-.126.073c-.025.012-.151.059-.454.059v2c.459 0 .934-.063 1.349-.27l-.895-1.79Zm-.212.937c.579 0 1.145-.163 1.606-.568l-1.32-1.502c-.024.02-.088.07-.286.07v2Zm1.607-.57c.483-.426.712-.998.712-1.618h-2a.24.24 0 0 1-.011.091.038.038 0 0 1-.005.008.13.13 0 0 1-.02.02l1.324 1.5Zm.712-1.618v-.11h-2v.11h2Zm-1-1.11h-1.396v2h1.397v-2Zm-1.396 0c-.39 0-.828.082-1.205.365l1.2 1.6a.3.3 0 0 1-.076.041l.017-.003a.522.522 0 0 1 .064-.003v-2Zm-1.205.365c-.421.316-.62.779-.62 1.262h2a.47.47 0 0 1-.18.338l-1.2-1.6Zm-.62 1.262c0 .5.213.947.601 1.261l1.259-1.554a.384.384 0 0 1 .1.132c.032.067.04.127.04.161h-2Zm.601 1.261c.4.324.884.41 1.3.41v-2a.727.727 0 0 1-.087-.004l-.032-.006c-.002 0 .032.009.078.046l-1.259 1.554ZM45.19 51l-.953.303.222.697h.731v-1Zm-1.738-5.456v-1h-1.368l.415 1.303.953-.303Zm1.474 0 .962-.274-.207-.726h-.755v1Zm1.265 4.444-.961.274.206.726h.755v-1Zm.198 0v1h.755l.207-.726-.962-.274Zm1.265-4.444v-1H46.9l-.206.726.961.274Zm1.474 0 .953.303.415-1.303h-1.368v1ZM47.39 51v1h.731l.222-.697L47.39 51Zm-1.247-.303-1.738-5.457-1.906.607 1.738 5.456 1.906-.606Zm-2.69-4.153h1.473v-2h-1.474v2Zm.512-.726 1.265 4.444 1.923-.548-1.265-4.444-1.923.548Zm2.226 5.17h.198v-2h-.198v2Zm1.16-.726 1.265-4.444-1.923-.548-1.265 4.444 1.923.548Zm.303-3.718h1.474v-2h-1.474v2Zm.521-1.303-1.737 5.456 1.905.606 1.738-5.456-1.906-.607ZM47.39 50h-2.2v2h2.2v-2Zm3.567.813-.496.868.009.006.009.005.478-.879Zm-.968-.979-.882.471.005.01.005.009.872-.49Zm0-3.113.878.478.004-.007-.882-.471Zm.957-.979.484.875.012-.007-.496-.868Zm2.827.011-.522.853.012.007.51-.86Zm.924.99-.889.46.004.006.885-.466Zm.33 1.936v1h1v-1h-1Zm-3.971 0v-1h-1.04l.04 1.04 1-.04Zm2.662.451.464-.886-.93-.487-.441.952.907.421Zm1.133.594.88.474.48-.89-.896-.47-.464.886Zm-.451.627-.755-.657-.001.002.756.655Zm-.77.572.43.902.009-.004.008-.004-.447-.894Zm-2.563-3.278-.987-.16-.19 1.16h1.177v-1Zm2.552 0v1h1.097l-.102-1.093-.995.093Zm-.385-.759-.655.756.006.005.006.005.643-.766Zm-.836 3.268c-.4 0-.712-.083-.964-.22l-.955 1.758c.584.317 1.233.462 1.919.462v-2Zm-.945-.21a1.536 1.536 0 0 1-.592-.6l-1.744.98a3.534 3.534 0 0 0 1.344 1.357l.992-1.736Zm-.583-.581c-.136-.256-.222-.587-.222-1.025h-2c0 .706.14 1.372.459 1.967l1.764-.942Zm-.222-1.025v-.132h-2v.132h2Zm0-.132c0-.439.086-.763.22-1.007l-1.758-.956c-.322.592-.462 1.258-.462 1.963h2Zm.222-1.014c.14-.26.323-.444.56-.575l-.969-1.75a3.368 3.368 0 0 0-1.354 1.383l1.764.942Zm.572-.582c.238-.136.539-.22.934-.22v-2c-.691 0-1.344.15-1.926.484l.992 1.736Zm.934-.22c.38 0 .659.084.875.216l1.043-1.706c-.576-.352-1.228-.51-1.918-.51v2Zm.887.223c.228.136.408.324.545.59l1.777-.92a3.41 3.41 0 0 0-1.303-1.39l-1.02 1.72Zm.549.596c.132.25.215.573.215.997h2c0-.69-.137-1.343-.446-1.929l-1.77.932Zm.215.997v.473h2v-.473h-2Zm1-.527h-3.971v2h3.97v-2Zm-4.97 1.04c.024.627.272 1.193.752 1.62l1.329-1.494c-.048-.043-.078-.085-.083-.205l-1.999.078Zm.752 1.62c.463.411 1.028.605 1.633.605v-2c-.158 0-.238-.041-.304-.1l-1.329 1.495Zm1.633.605c.504 0 1.087-.105 1.535-.517l-1.354-1.472c.04-.038.067-.04.042-.033a.839.839 0 0 1-.223.022v2Zm1.535-.517c.27-.249.492-.54.648-.876l-1.814-.842a.785.785 0 0 1-.188.246l1.354 1.472Zm-.724-.411 1.133.594.929-1.772-1.133-.594-.929 1.772Zm.717-.766a2.569 2.569 0 0 1-.325.444l1.509 1.314c.229-.264.428-.534.577-.81l-1.76-.948Zm-.326.446c-.087.1-.23.216-.462.333l.895 1.788a3.448 3.448 0 0 0 1.078-.811l-1.511-1.31Zm-.445.325c-.146.07-.397.133-.801.133v2c.592 0 1.163-.09 1.662-.329L53.2 50.02Zm-2.132-1.376h2.552v-2h-2.552v2Zm3.547-1.093a2.078 2.078 0 0 0-.738-1.432l-1.285 1.532a.101.101 0 0 1 .014.014.022.022 0 0 1 .004.005c0 .002.01.02.014.067l1.991-.186Zm-.725-1.422c-.442-.382-.983-.53-1.524-.53v2c.091 0 .146.012.174.021a.106.106 0 0 1 .04.02l1.31-1.51Zm-1.524-.53c-.545 0-1.098.142-1.546.53l1.31 1.512c0-.001.009-.009.038-.018a.66.66 0 0 1 .198-.024v-2Zm-1.546.53c-.415.36-.654.832-.74 1.354l1.975.322c.017-.109.05-.142.075-.164l-1.31-1.512Zm9.367 4.694-.453.891.453-.891Zm-1.023-4.147.859.512-.859-.512Zm1.023-.957.453.891-.453-.891Zm2.926 0-.453.891.453-.891Zm1.023.957-.859.512.86-.512Zm0 3.19-.859-.512.86.512Zm-1.023.957-.453-.891.453.891Zm-.407-1.309.698.716.01-.009-.708-.707Zm0-2.475-.716.698.009.01.01.009.697-.717Zm-2.112 0 .698.717.01-.01-.708-.707Zm0 2.475-.707.707.01.01.697-.717Zm1.056.639c-.404 0-.733-.08-1.01-.221l-.906 1.782a4.18 4.18 0 0 0 1.916.439v-2Zm-1.01-.221a1.475 1.475 0 0 1-.617-.578l-1.718 1.024c.346.58.828 1.03 1.429 1.336l.907-1.782Zm-.617-.578c-.14-.234-.233-.552-.233-.995h-2c0 .73.156 1.417.515 2.02l1.718-1.025Zm-.233-.995v-.176h-2v.176h2Zm0-.176c0-.443.093-.76.233-.995l-1.718-1.024c-.359.602-.515 1.29-.515 2.019h2Zm.233-.995c.153-.256.354-.443.617-.578l-.906-1.782a3.474 3.474 0 0 0-1.429 1.336l1.718 1.024Zm.617-.578c.277-.14.606-.221 1.01-.221v-2c-.681 0-1.327.14-1.916.439l.907 1.782Zm1.01-.221c.404 0 .734.08 1.01.221l.906-1.782a4.179 4.179 0 0 0-1.916-.439v2Zm1.01.221c.264.135.465.322.617.578l1.718-1.024a3.474 3.474 0 0 0-1.429-1.336l-.906 1.782Zm.617.578c.14.234.233.552.233.995h2c0-.73-.156-1.417-.515-2.02l-1.718 1.025Zm.233.995v.176h2v-.176h-2Zm0 .176c0 .443-.093.76-.233.995l1.718 1.024c.36-.602.515-1.29.515-2.019h-2Zm-.233.995a1.475 1.475 0 0 1-.617.578l.906 1.782a3.474 3.474 0 0 0 1.429-1.336l-1.718-1.024Zm-.617.578c-.276.14-.606.221-1.01.221v2a4.18 4.18 0 0 0 1.916-.439l-.906-1.782Zm-1.01.989c.66 0 1.27-.22 1.754-.69l-1.395-1.434c-.074.072-.167.124-.359.124v2Zm1.763-.7c.518-.518.711-1.2.711-1.895h-2c0 .332-.086.442-.125.48l1.414 1.415Zm.711-1.895v-.11h-2v.11h2Zm0-.11c0-.693-.192-1.38-.72-1.893l-1.395 1.433c.029.028.115.127.115.46h2Zm-.701-1.875c-.482-.494-1.104-.72-1.773-.72v2c.196 0 .279.053.34.116l1.433-1.396Zm-1.773-.72c-.667 0-1.28.229-1.763.71l1.414 1.415c.076-.075.166-.125.35-.125v-2Zm-1.753.702c-.529.514-.72 1.2-.72 1.893h2c0-.333.086-.432.115-.46l-1.395-1.433Zm-.72 1.893v.11h2v-.11h-2Zm0 .11c0 .695.192 1.377.71 1.895l1.414-1.414c-.039-.04-.125-.15-.125-.481h-2Zm.72 1.904c.483.471 1.094.691 1.753.691v-2c-.191 0-.285-.052-.358-.123l-1.395 1.432Zm6.612.769h-1v1h1v-1Zm0-4.312h1v-1h-1v1Zm-1.386 0h-1v1h1v-1Zm0-1.144v-1h-1v1h1Zm1.386 0v1h1v-1h-1Zm.33-1.903.707.707-.707-.707Zm2.31-.341h1v-1h-1v1Zm0 1.144v1h1v-1h-1Zm-1.254 1.1h-1v1h1v-1Zm1.43 0h1v-1h-1v1Zm0 1.144v1h1v-1h-1Zm-1.43 0v-1h-1v1h1Zm0 4.312v1h1v-1h-1Zm-.386 0v-4.312h-2V51h2Zm-1-5.312h-1.386v2h1.386v-2Zm-.386 1v-1.144h-2v1.144h2Zm-1-.144h1.386v-2h-1.386v2Zm2.386-1v-1.012h-2v1.012h2Zm0-1.012a.46.46 0 0 1 .02-.156.066.066 0 0 1 .017-.028l-1.414-1.414c-.445.444-.623 1.016-.623 1.598h2Zm.037-.184c.017-.017.045-.048.173-.048v-2c-.59 0-1.15.196-1.587.634l1.414 1.414Zm.173-.048h1.43v-2h-1.43v2Zm.43-1v1.144h2V43.3h-2Zm1 .144h-.946v2h.946v-2Zm-.946 0c-.275 0-.66.077-.962.4-.29.31-.346.682-.346.93h2a.667.667 0 0 1-.192.435.71.71 0 0 1-.5.235v-2Zm-1.308 1.33v.77h2v-.77h-2Zm1 1.77h1.43v-2h-1.43v2Zm.43-1v1.144h2v-1.144h-2Zm1 .144h-1.43v2h1.43v-2Zm-2.43 1V51h2v-4.312h-2Zm1 3.312h-1.386v2h1.386v-2Zm4.595 1-.967-.254-.33 1.254h1.297v-1Zm2.024-7.7v-1h-.771l-.196.746.967.254Zm2.53 0 .967-.254-.196-.746h-.771v1Zm2.024 7.7v1h1.297l-.33-1.254-.967.254Zm-1.496 0-.97.24.187.76h.783v-1Zm-.418-1.694.97-.24-.187-.76h-.783v1Zm-2.75 0v-1h-.783l-.188.76.971.24ZM73.985 51v1h.783l.188-.76-.971-.24Zm.759-3.036-.97-.242-.31 1.242h1.28v-1Zm2.068 0v1h1.28l-.31-1.242-.97.242Zm-.935-3.751.97-.242-.189-.758h-.781v1Zm-.198 0v-1h-.781l-.19.758.971.242Zm-2.223 7.041 2.024-7.7-1.934-.508-2.024 7.7 1.934.508Zm1.057-6.954h2.53v-2h-2.53v2Zm1.563-.746 2.024 7.7 1.934-.508-2.024-7.7-1.934.508ZM79.067 50h-1.496v2h1.496v-2Zm-.525.76-.418-1.694-1.942.48.418 1.694 1.942-.48Zm-1.389-2.454h-2.75v2h2.75v-2Zm-3.72.76-.419 1.694 1.942.48.418-1.694-1.942-.48Zm.552.934h-1.496v2h1.496v-2Zm.759-1.036h2.068v-2h-2.068v2Zm3.038-1.242-.935-3.75-1.94.483.935 3.75 1.94-.483Zm-1.905-4.509h-.198v2h.198v-2Zm-1.168.758-.935 3.751 1.94.484.935-3.751-1.94-.484ZM80.033 51h-1v1h1v-1Zm0-5.456v-1h-1v1h1Zm1.364 0h1v-1h-1v1Zm0 .616h-1v1h1v-1Zm.198 0v1h.698l.24-.656-.938-.344Zm.396-.484-.474-.88-.008.004-.007.004.489.872Zm1.32-.154h1v-1h-1v1Zm0 1.232v1h1v-1h-1Zm-1.551.286.627.778.008-.006.007-.006-.642-.766ZM81.419 51v1h1v-1h-1Zm-.386 0v-5.456h-2V51h2Zm-1-4.456h1.364v-2h-1.364v2Zm.364-1v.616h2v-.616h-2Zm1 1.616h.198v-2h-.198v2Zm1.137-.656c.006-.018.007-.013-.006.003a.185.185 0 0 1-.049.041l-.977-1.745a1.875 1.875 0 0 0-.846 1.013l1.878.688Zm-.07.053a.383.383 0 0 1 .187-.035v-2c-.39 0-.777.081-1.134.273l.948 1.761Zm.187-.035h.66v-2h-.66v2Zm-.34-1v1.232h2v-1.232h-2Zm1 .232h-.682v2h.682v-2Zm-.682 0c-.541 0-1.072.151-1.512.52l1.285 1.532c.015-.012.064-.052.227-.052v-2Zm-1.497.508c-.535.431-.713 1.052-.713 1.636h2c0-.1.015-.138.014-.137a.183.183 0 0 1-.046.057l-1.255-1.556Zm-.713 1.636V51h2v-3.102h-2Zm1 2.102h-1.386v2h1.386v-2Zm4.185.67-.719.695.012.012.012.012.695-.719Zm-.33-3.982h1v-1h-1v1Zm-1.364 0h-1v1h1v-1Zm0-1.144v-1h-1v1h1Zm1.364 0v1h1v-1h-1Zm0-1.694v-1h-1v1h1Zm1.386 0h1v-1h-1v1Zm0 1.694h-1v1h1v-1Zm1.496 0h1v-1h-1v1Zm0 1.144v1h1v-1h-1Zm-1.496 0v-1h-1v1h1Zm1.364 3.168h1v-1h-1v1Zm0 1.144v1h1v-1h-1Zm-1.54-1c-.138 0-.17-.034-.185-.049l-1.39 1.438c.44.425.994.611 1.575.611v-2Zm-.161-.025c-.007-.008-.049-.042-.049-.207h-2c0 .583.179 1.15.611 1.597l1.438-1.39Zm-.049-.207v-3.08h-2v3.08h2Zm-1-4.08H83.91v2h1.364v-2Zm-.364 1v-1.144h-2v1.144h2Zm-1-.144h1.364v-2H83.91v2Zm2.364-1V43.85h-2v1.694h2Zm-1-.694h1.386v-2h-1.386v2Zm.386-1v1.694h2V43.85h-2Zm1 2.694h1.496v-2H86.66v2Zm.496-1v1.144h2v-1.144h-2Zm1 .144H86.66v2h1.496v-2Zm-2.496 1v2.838h2v-2.838h-2Zm0 2.838c0 .248.056.62.346.93.302.323.687.4.962.4v-2a.71.71 0 0 1 .5.235c.187.2.192.407.192.435h-2Zm1.308 1.33h1.056v-2h-1.056v2Zm.056-1V51h2v-1.144h-2Zm1 .144h-1.54v2h1.54v-2Z" fill="#fff"></path><path fill="#D64E7C" stroke="#fff" d="M17.5 14.5h15v15h-15z"></path><path fill="#F88D6E" stroke="#fff" d="M59.5 6.5h15v15h-15z"></path><defs><linearGradient id="logo_0" x1="45.5" y1="0" x2="45.5" y2="38" gradientUnits="userSpaceOnUse"><stop stop-color="#B91A87"></stop><stop offset="1" stop-color="#FD966B"></stop></linearGradient></defs></svg></svg>