<svg width="48" height="48" viewBox="0 0 48 48" fill="none" xmlns="http://www.w3.org/2000/svg">
<path d="M26.056 4.00246C27.5155 3.99686 28.9749 4.01153 30.434 4.04646L30.822 4.06046C31.27 4.07646 31.712 4.09646 32.246 4.12046C34.374 4.22046 35.826 4.55646 37.1 5.05046C38.42 5.55846 39.532 6.24646 40.644 7.35846C41.6607 8.35767 42.4476 9.56635 42.95 10.9005C43.444 12.1745 43.78 13.6285 43.88 15.7565C43.904 16.2885 43.924 16.7325 43.94 17.1805L43.952 17.5685C43.9875 19.0268 44.0029 20.4857 43.998 21.9445L44 23.4365V26.0565C44.0049 27.5159 43.9896 28.9754 43.954 30.4345L43.942 30.8225C43.926 31.2705 43.906 31.7125 43.882 32.2465C43.782 34.3745 43.442 35.8265 42.95 37.1005C42.4493 38.436 41.6622 39.6457 40.644 40.6445C39.6439 41.6611 38.4346 42.448 37.1 42.9505C35.826 43.4445 34.374 43.7805 32.246 43.8805C31.712 43.9045 31.27 43.9245 30.822 43.9405L30.434 43.9525C28.9749 43.988 27.5155 44.0033 26.056 43.9985L24.564 44.0005H21.946C20.4865 44.0054 19.027 43.9901 17.568 43.9545L17.18 43.9425C16.7052 43.9253 16.2305 43.9053 15.756 43.8825C13.628 43.7825 12.176 43.4425 10.9 42.9505C9.56536 42.4492 8.35647 41.6621 7.35799 40.6445C6.34009 39.645 5.55244 38.4356 5.04999 37.1005C4.55599 35.8265 4.21999 34.3745 4.11999 32.2465C4.09772 31.7719 4.07772 31.2972 4.05999 30.8225L4.04999 30.4345C4.01312 28.9754 3.99645 27.516 3.99999 26.0565V21.9445C3.99441 20.4857 4.00908 19.0269 4.04399 17.5685L4.05799 17.1805C4.07399 16.7325 4.09399 16.2885 4.11799 15.7565C4.21799 13.6265 4.55399 12.1765 5.04799 10.9005C5.55074 9.5657 6.33992 8.35735 7.35999 7.36046C8.35778 6.34196 9.56592 5.55361 10.9 5.05046C12.176 4.55646 13.626 4.22046 15.756 4.12046L17.18 4.06046L17.568 4.05046C19.0264 4.01361 20.4852 3.99694 21.944 4.00046L26.056 4.00246ZM24 14.0025C22.675 13.9837 21.3595 14.2285 20.1299 14.7226C18.9004 15.2167 17.7813 15.9502 16.8377 16.8806C15.8941 17.8109 15.1448 18.9195 14.6334 20.142C14.1219 21.3644 13.8586 22.6763 13.8586 24.0015C13.8586 25.3266 14.1219 26.6385 14.6334 27.8609C15.1448 29.0834 15.8941 30.192 16.8377 31.1224C17.7813 32.0527 18.9004 32.7862 20.1299 33.2803C21.3595 33.7744 22.675 34.0192 24 34.0005C26.6522 34.0005 29.1957 32.9469 31.0711 31.0715C32.9464 29.1962 34 26.6526 34 24.0005C34 21.3483 32.9464 18.8048 31.0711 16.9294C29.1957 15.054 26.6522 14.0025 24 14.0025ZM24 18.0025C24.797 17.9878 25.589 18.1321 26.3296 18.4269C27.0702 18.7217 27.7447 19.1611 28.3136 19.7196C28.8824 20.278 29.3343 20.9441 29.6429 21.6791C29.9514 22.4142 30.1104 23.2033 30.1105 24.0004C30.1107 24.7976 29.9519 25.5868 29.6437 26.3219C29.3354 27.057 28.8837 27.7233 28.315 28.2819C27.7463 28.8405 27.072 29.2802 26.3314 29.5753C25.5909 29.8703 24.799 30.0149 24.002 30.0005C22.4107 30.0005 20.8846 29.3683 19.7594 28.2431C18.6341 27.1179 18.002 25.5918 18.002 24.0005C18.002 22.4092 18.6341 20.883 19.7594 19.7578C20.8846 18.6326 22.4107 18.0005 24.002 18.0005L24 18.0025ZM34.5 11.0025C33.8548 11.0283 33.2446 11.3028 32.7972 11.7684C32.3498 12.234 32.1 12.8547 32.1 13.5005C32.1 14.1462 32.3498 14.7669 32.7972 15.2325C33.2446 15.6982 33.8548 15.9726 34.5 15.9985C35.163 15.9985 35.7989 15.7351 36.2678 15.2662C36.7366 14.7974 37 14.1615 37 13.4985C37 12.8354 36.7366 12.1995 36.2678 11.7307C35.7989 11.2619 35.163 10.9985 34.5 10.9985V11.0025Z" fill="white"/>
</svg>
