<svg width="1230" height="776" viewBox="0 0 1230 776" fill="none" xmlns="http://www.w3.org/2000/svg">
<circle cx="89" cy="29" r="29" fill="white"/>
<circle cx="250" cy="50" r="16" fill="white"/>
<circle cx="250" cy="221" r="16" fill="white"/>
<circle cx="258" cy="392" r="16" fill="white"/>
<circle cx="258" cy="563" r="16" fill="white"/>
<circle cx="266" cy="737" r="16" fill="white"/>
<circle cx="702" cy="66" r="16" fill="white"/>
<circle cx="702" cy="237" r="16" fill="white"/>
<circle cx="702" cy="400" r="16" fill="white"/>
<circle cx="705" cy="564" r="16" fill="white"/>
<circle cx="714" cy="734" r="16" fill="white"/>
<circle cx="1108" cy="406" r="16" fill="white"/>
<circle cx="1115" cy="713" r="16" fill="white"/>
<circle cx="1108" cy="98" r="16" fill="white"/>
<circle cx="1108" cy="252" r="16" fill="white"/>
<circle cx="1115" cy="563" r="16" fill="white"/>
<circle cx="837" cy="342" r="16" fill="white"/>
<circle cx="837" cy="506" r="16" fill="white"/>
<circle cx="837" cy="178" r="16" fill="white"/>
<circle cx="1059" cy="499" r="16" fill="white"/>
<circle cx="1043" cy="253" r="16" fill="white"/>
<circle cx="583" cy="146" r="16" fill="white"/>
<circle cx="593" cy="351" r="16" fill="white"/>
<circle cx="146" cy="326" r="16" fill="white"/>
<circle cx="146" cy="155" r="16" fill="white"/>
<circle cx="341" cy="294" r="16" fill="white"/>
<circle cx="381" cy="424" r="16" fill="white"/>
<circle cx="349" cy="639" r="16" fill="white"/>
<circle cx="413" cy="171" r="16" fill="white"/>
<circle cx="341" cy="107" r="16" fill="white"/>
<circle cx="146" cy="596" r="16" fill="white"/>
<circle cx="16" cy="269" r="16" fill="white"/>
<circle cx="16" cy="522" r="16" fill="white"/>
<circle cx="1205" cy="424" r="16" fill="white"/>
<circle cx="1205" cy="205" r="16" fill="white"/>
<circle cx="1214" cy="632" r="16" fill="white"/>
<circle cx="82" cy="747" r="29" fill="white"/>
<circle cx="981.5" cy="74.5" r="24.5" fill="white"/>
<circle cx="989.5" cy="712.5" r="24.5" fill="white"/>
<circle cx="981.5" cy="74.5" r="24.5" fill="white"/>
<circle cx="88" cy="387" r="29" fill="white"/>
</svg>
