<svg width="33" height="31" viewBox="0 0 33 31" fill="none" xmlns="http://www.w3.org/2000/svg">
<path d="M30.1666 24.8958C30.8247 24.8961 31.4574 25.1496 31.9337 25.6038C32.4099 26.0579 32.6932 26.6779 32.7249 27.3352C32.7565 27.9925 32.534 28.6368 32.1035 29.1345C31.6731 29.6323 31.0676 29.9454 30.4126 30.0089L30.1666 30.0208H2.83325C2.17517 30.0205 1.54244 29.767 1.06617 29.3129C0.589905 28.8587 0.306606 28.2388 0.274981 27.5815C0.243356 26.9241 0.46583 26.2799 0.896302 25.7821C1.32677 25.2843 1.93224 24.9713 2.58725 24.9078L2.83325 24.8958H30.1666ZM30.1666 12.9375C30.8462 12.9375 31.498 13.2075 31.9785 13.688C32.4591 14.1686 32.7291 14.8204 32.7291 15.5C32.7291 16.1796 32.4591 16.8314 31.9785 17.312C31.498 17.7925 30.8462 18.0625 30.1666 18.0625H2.83325C2.15363 18.0625 1.50185 17.7925 1.02129 17.312C0.540729 16.8314 0.270752 16.1796 0.270752 15.5C0.270752 14.8204 0.540729 14.1686 1.02129 13.688C1.50185 13.2075 2.15363 12.9375 2.83325 12.9375H30.1666ZM30.1666 0.979156C30.8462 0.979156 31.498 1.24913 31.9785 1.7297C32.4591 2.21026 32.7291 2.86204 32.7291 3.54166C32.7291 4.22127 32.4591 4.87306 31.9785 5.35362C31.498 5.83418 30.8462 6.10416 30.1666 6.10416H2.83325C2.15363 6.10416 1.50185 5.83418 1.02129 5.35362C0.540729 4.87306 0.270752 4.22127 0.270752 3.54166C0.270752 2.86204 0.540729 2.21026 1.02129 1.7297C1.50185 1.24913 2.15363 0.979156 2.83325 0.979156H30.1666Z" fill="#55228B"/>
</svg>
