<svg width="91" height="54" viewBox="0 0 91 54" fill="none" xmlns="http://www.w3.org/2000/svg">
<path d="M41.2931 6.70588V6.20588H40.7931H9.41379H8.91379V6.70588V19C8.91379 19.6914 8.52862 20.4055 7.74508 20.9636C6.95947 21.5233 5.8676 21.8529 4.7069 21.8529C3.5462 21.8529 2.45432 21.5233 1.66871 20.9636C0.885173 20.4055 0.5 19.6914 0.5 19V3.35294C0.5 2.66158 0.885174 1.94745 1.66871 1.38929C2.45432 0.829668 3.5462 0.5 4.7069 0.5H45.5C46.6607 0.5 47.7526 0.829668 48.5382 1.38929C49.3217 1.94745 49.7069 2.66158 49.7069 3.35294V31.2941V31.7941H50.2069H81.5862H82.0862V31.2941V19C82.0862 18.3086 82.4714 17.5945 83.2549 17.0364C84.0405 16.4767 85.1324 16.1471 86.2931 16.1471C87.4538 16.1471 88.5457 16.4767 89.3313 17.0364C90.1148 17.5945 90.5 18.3086 90.5 19V34.6471C90.5 35.3384 90.1148 36.0526 89.3313 36.6107C88.5457 37.1703 87.4538 37.5 86.2931 37.5H45.5C44.3393 37.5 43.2474 37.1703 42.4618 36.6107C41.6783 36.0526 41.2931 35.3384 41.2931 34.6471V6.70588Z" fill="url(#paint0_linear_9_46)" stroke="white"/>
<path d="M3.08537 51V43.3H5.84638L7.37538 50.01H7.57338V43.3H9.00338V51H6.24238L4.71338 44.29H4.51538V51H3.08537ZM12.9845 51.154C12.4418 51.154 11.9615 51.0403 11.5435 50.813C11.1328 50.5783 10.8102 50.252 10.5755 49.834C10.3482 49.4087 10.2345 48.91 10.2345 48.338V48.206C10.2345 47.634 10.3482 47.139 10.5755 46.721C10.8028 46.2957 11.1218 45.9693 11.5325 45.742C11.9432 45.5073 12.4198 45.39 12.9625 45.39C13.4978 45.39 13.9635 45.511 14.3595 45.753C14.7555 45.9877 15.0635 46.3177 15.2835 46.743C15.5035 47.161 15.6135 47.6487 15.6135 48.206V48.679H11.6425C11.6572 49.053 11.7965 49.3573 12.0605 49.592C12.3245 49.8267 12.6472 49.944 13.0285 49.944C13.4172 49.944 13.7032 49.8597 13.8865 49.691C14.0698 49.5223 14.2092 49.3353 14.3045 49.13L15.4375 49.724C15.3348 49.9147 15.1845 50.1237 14.9865 50.351C14.7958 50.571 14.5392 50.7617 14.2165 50.923C13.8938 51.077 13.4832 51.154 12.9845 51.154ZM11.6535 47.645H14.2055C14.1762 47.3297 14.0478 47.0767 13.8205 46.886C13.6005 46.6953 13.3108 46.6 12.9515 46.6C12.5775 46.6 12.2805 46.6953 12.0605 46.886C11.8405 47.0767 11.7048 47.3297 11.6535 47.645ZM17.2657 51L16.4957 45.544H17.8707L18.3547 50.065H18.5527L19.2567 45.544H21.4787L22.1827 50.065H22.3807L22.8647 45.544H24.2397L23.4697 51H21.1707L20.4667 46.479H20.2687L19.5647 51H17.2657ZM28.7522 51L27.7402 43.3H29.1812L29.9292 49.988H30.1272L31.0952 43.3H33.6032L34.5712 49.988H34.7692L35.5172 43.3H36.9582L35.9462 51H33.4382L32.4482 44.158H32.2502L31.2602 51H28.7522ZM39.6925 51.154C39.3038 51.154 38.9555 51.088 38.6475 50.956C38.3395 50.8167 38.0938 50.6187 37.9105 50.362C37.7345 50.098 37.6465 49.779 37.6465 49.405C37.6465 49.031 37.7345 48.7193 37.9105 48.47C38.0938 48.2133 38.3432 48.0227 38.6585 47.898C38.9812 47.766 39.3478 47.7 39.7585 47.7H41.2545V47.392C41.2545 47.1353 41.1738 46.9263 41.0125 46.765C40.8512 46.5963 40.5945 46.512 40.2425 46.512C39.8978 46.512 39.6412 46.5927 39.4725 46.754C39.3038 46.908 39.1938 47.1097 39.1425 47.359L37.8665 46.93C37.9545 46.6513 38.0938 46.3983 38.2845 46.171C38.4825 45.9363 38.7428 45.7493 39.0655 45.61C39.3955 45.4633 39.7952 45.39 40.2645 45.39C40.9832 45.39 41.5515 45.5697 41.9695 45.929C42.3875 46.2883 42.5965 46.809 42.5965 47.491V49.526C42.5965 49.746 42.6992 49.856 42.9045 49.856H43.3445V51H42.4205C42.1492 51 41.9255 50.934 41.7495 50.802C41.5735 50.67 41.4855 50.494 41.4855 50.274V50.263H41.2765C41.2472 50.351 41.1812 50.4683 41.0785 50.615C40.9758 50.7543 40.8145 50.879 40.5945 50.989C40.3745 51.099 40.0738 51.154 39.6925 51.154ZM39.9345 50.032C40.3232 50.032 40.6385 49.9257 40.8805 49.713C41.1298 49.493 41.2545 49.2033 41.2545 48.844V48.734H39.8575C39.6008 48.734 39.3992 48.789 39.2525 48.899C39.1058 49.009 39.0325 49.163 39.0325 49.361C39.0325 49.559 39.1095 49.7203 39.2635 49.845C39.4175 49.9697 39.6412 50.032 39.9345 50.032ZM45.1904 51L43.4524 45.544H44.9264L46.1914 49.988H46.3894L47.6544 45.544H49.1284L47.3904 51H45.1904ZM52.3976 51.154C51.8549 51.154 51.3746 51.0403 50.9566 50.813C50.5459 50.5783 50.2233 50.252 49.9886 49.834C49.7613 49.4087 49.6476 48.91 49.6476 48.338V48.206C49.6476 47.634 49.7613 47.139 49.9886 46.721C50.2159 46.2957 50.5349 45.9693 50.9456 45.742C51.3563 45.5073 51.8329 45.39 52.3756 45.39C52.9109 45.39 53.3766 45.511 53.7726 45.753C54.1686 45.9877 54.4766 46.3177 54.6966 46.743C54.9166 47.161 55.0266 47.6487 55.0266 48.206V48.679H51.0556C51.0703 49.053 51.2096 49.3573 51.4736 49.592C51.7376 49.8267 52.0603 49.944 52.4416 49.944C52.8303 49.944 53.1163 49.8597 53.2996 49.691C53.4829 49.5223 53.6223 49.3353 53.7176 49.13L54.8506 49.724C54.7479 49.9147 54.5976 50.1237 54.3996 50.351C54.2089 50.571 53.9523 50.7617 53.6296 50.923C53.3069 51.077 52.8963 51.154 52.3976 51.154ZM51.0666 47.645H53.6186C53.5893 47.3297 53.4609 47.0767 53.2336 46.886C53.0136 46.6953 52.7239 46.6 52.3646 46.6C51.9906 46.6 51.6936 46.6953 51.4736 46.886C51.2536 47.0767 51.1179 47.3297 51.0666 47.645ZM61.6492 51.154C61.1065 51.154 60.6189 51.044 60.1862 50.824C59.7535 50.604 59.4125 50.285 59.1632 49.867C58.9139 49.449 58.7892 48.9467 58.7892 48.36V48.184C58.7892 47.5973 58.9139 47.095 59.1632 46.677C59.4125 46.259 59.7535 45.94 60.1862 45.72C60.6189 45.5 61.1065 45.39 61.6492 45.39C62.1919 45.39 62.6795 45.5 63.1122 45.72C63.5449 45.94 63.8859 46.259 64.1352 46.677C64.3845 47.095 64.5092 47.5973 64.5092 48.184V48.36C64.5092 48.9467 64.3845 49.449 64.1352 49.867C63.8859 50.285 63.5449 50.604 63.1122 50.824C62.6795 51.044 62.1919 51.154 61.6492 51.154ZM61.6492 49.922C62.0745 49.922 62.4265 49.7863 62.7052 49.515C62.9839 49.2363 63.1232 48.8403 63.1232 48.327V48.217C63.1232 47.7037 62.9839 47.3113 62.7052 47.04C62.4339 46.7613 62.0819 46.622 61.6492 46.622C61.2239 46.622 60.8719 46.7613 60.5932 47.04C60.3145 47.3113 60.1752 47.7037 60.1752 48.217V48.327C60.1752 48.8403 60.3145 49.2363 60.5932 49.515C60.8719 49.7863 61.2239 49.922 61.6492 49.922ZM66.5079 51V46.688H65.1219V45.544H66.5079V44.532C66.5079 44.158 66.6179 43.861 66.8379 43.641C67.0653 43.4137 67.3586 43.3 67.7179 43.3H69.1479V44.444H68.2019C67.9966 44.444 67.8939 44.554 67.8939 44.774V45.544H69.3239V46.688H67.8939V51H66.5079ZM72.489 51L74.513 43.3H77.043L79.067 51H77.571L77.153 49.306H74.403L73.985 51H72.489ZM74.744 47.964H76.812L75.877 44.213H75.679L74.744 47.964ZM80.0327 51V45.544H81.3967V46.16H81.5947C81.6754 45.94 81.8074 45.7787 81.9907 45.676C82.1814 45.5733 82.4014 45.522 82.6507 45.522H83.3107V46.754H82.6287C82.2767 46.754 81.987 46.8493 81.7597 47.04C81.5324 47.2233 81.4187 47.5093 81.4187 47.898V51H80.0327ZM86.484 51C86.1247 51 85.8314 50.89 85.604 50.67C85.384 50.4427 85.274 50.142 85.274 49.768V46.688H83.91V45.544H85.274V43.85H86.66V45.544H88.156V46.688H86.66V49.526C86.66 49.746 86.7627 49.856 86.968 49.856H88.024V51H86.484Z" fill="#BF2585"/>
<path d="M3.08538 51H2.08538V52H3.08538V51ZM3.08538 43.3V42.3H2.08538V43.3H3.08538ZM5.84637 43.3L6.82138 43.0778L6.64414 42.3H5.84637V43.3ZM7.37538 50.01L6.40037 50.2322L6.57761 51.01H7.37538V50.01ZM7.57338 50.01V51.01H8.57338V50.01H7.57338ZM7.57338 43.3V42.3H6.57338V43.3H7.57338ZM9.00338 43.3H10.0034V42.3H9.00338V43.3ZM9.00338 51V52H10.0034V51H9.00338ZM6.24238 51L5.26737 51.2222L5.44461 52H6.24238V51ZM4.71338 44.29L5.68838 44.0678L5.51114 43.29H4.71338V44.29ZM4.51538 44.29V43.29H3.51538V44.29H4.51538ZM4.51538 51V52H5.51538V51H4.51538ZM4.08537 51V43.3H2.08538V51H4.08537ZM3.08538 44.3H5.84637V42.3H3.08538V44.3ZM4.87137 43.5222L6.40037 50.2322L8.35038 49.7878L6.82138 43.0778L4.87137 43.5222ZM7.37538 51.01H7.57338V49.01H7.37538V51.01ZM8.57338 50.01V43.3H6.57338V50.01H8.57338ZM7.57338 44.3H9.00338V42.3H7.57338V44.3ZM8.00338 43.3V51H10.0034V43.3H8.00338ZM9.00338 50H6.24238V52H9.00338V50ZM7.21738 50.7778L5.68838 44.0678L3.73837 44.5122L5.26737 51.2222L7.21738 50.7778ZM4.71338 43.29H4.51538V45.29H4.71338V43.29ZM3.51538 44.29V51H5.51538V44.29H3.51538ZM4.51538 50H3.08538V52H4.51538V50ZM11.5435 50.813L11.0474 51.6812L11.0565 51.6865L11.0657 51.6915L11.5435 50.813ZM10.5755 49.834L9.69358 50.3054L9.69846 50.3145L9.70353 50.3235L10.5755 49.834ZM10.5755 46.721L11.454 47.1988L11.4574 47.1924L10.5755 46.721ZM11.5325 45.742L12.0169 46.617L12.0287 46.6102L11.5325 45.742ZM14.3595 45.753L13.838 46.6064L13.8497 46.6133L14.3595 45.753ZM15.2835 46.743L14.3953 47.2024L14.3986 47.2087L15.2835 46.743ZM15.6135 48.679V49.679H16.6135V48.679H15.6135ZM11.6425 48.679V47.679H10.6025L10.6433 48.7182L11.6425 48.679ZM14.3045 49.13L14.7688 48.2443L13.8394 47.7571L13.3975 48.7089L14.3045 49.13ZM15.4375 49.724L16.318 50.1981L16.7974 49.3078L15.9018 48.8383L15.4375 49.724ZM14.9865 50.351L14.2324 49.6942L14.2308 49.6961L14.9865 50.351ZM14.2165 50.923L14.6472 51.8255L14.6555 51.8215L14.6637 51.8174L14.2165 50.923ZM11.6535 47.645L10.6665 47.4843L10.4776 48.645H11.6535V47.645ZM14.2055 47.645V48.645H15.3029L15.2012 47.5524L14.2055 47.645ZM13.8205 46.886L13.1656 47.6417L13.1717 47.647L13.1779 47.6522L13.8205 46.886ZM12.9845 50.154C12.585 50.154 12.2732 50.0715 12.0213 49.9345L11.0657 51.6915C11.6499 52.0092 12.2987 52.154 12.9845 52.154V50.154ZM12.0397 49.9448C11.7885 49.8012 11.5948 49.6068 11.4475 49.3445L9.70353 50.3235C10.0256 50.8972 10.4772 51.3554 11.0474 51.6812L12.0397 49.9448ZM11.4574 49.3626C11.3209 49.1071 11.2345 48.7761 11.2345 48.338H9.23452C9.23452 49.0439 9.37551 49.7103 9.69358 50.3054L11.4574 49.3626ZM11.2345 48.338V48.206H9.23452V48.338H11.2345ZM11.2345 48.206C11.2345 47.7673 11.321 47.4432 11.454 47.1988L9.69703 46.2432C9.37532 46.8348 9.23452 47.5007 9.23452 48.206H11.2345ZM11.4574 47.1924C11.5965 46.9321 11.7797 46.7482 12.0168 46.6169L11.0482 44.8671C10.464 45.1905 10.0092 45.6592 9.69358 46.2496L11.4574 47.1924ZM12.0287 46.6102C12.2672 46.474 12.5679 46.39 12.9625 46.39V44.39C12.2718 44.39 11.6192 44.5407 11.0364 44.8738L12.0287 46.6102ZM12.9625 46.39C13.3426 46.39 13.6219 46.4742 13.8381 46.6063L14.881 44.8997C14.3051 44.5478 13.6531 44.39 12.9625 44.39V46.39ZM13.8497 46.6133C14.0778 46.7485 14.2577 46.9365 14.3953 47.2024L16.1717 46.2836C15.8693 45.6989 15.4332 45.2269 14.8693 44.8927L13.8497 46.6133ZM14.3986 47.2087C14.5305 47.4594 14.6135 47.7818 14.6135 48.206H16.6135C16.6135 47.5155 16.4765 46.8626 16.1684 46.2773L14.3986 47.2087ZM14.6135 48.206V48.679H16.6135V48.206H14.6135ZM15.6135 47.679H11.6425V49.679H15.6135V47.679ZM10.6433 48.7182C10.6679 49.3459 10.9157 49.9123 11.3962 50.3394L12.7249 48.8446C12.6773 48.8023 12.6465 48.7601 12.6417 48.6398L10.6433 48.7182ZM11.3962 50.3394C11.8584 50.7503 12.4234 50.944 13.0285 50.944V48.944C12.8709 48.944 12.7906 48.903 12.7249 48.8446L11.3962 50.3394ZM13.0285 50.944C13.533 50.944 14.1159 50.8388 14.5636 50.4269L13.2095 48.9551C13.2504 48.9174 13.2765 48.9143 13.2517 48.9216C13.2235 48.9299 13.1544 48.944 13.0285 48.944V50.944ZM14.5636 50.4269C14.8337 50.1784 15.0556 49.8869 15.2115 49.5511L13.3975 48.7089C13.3627 48.7838 13.306 48.8663 13.2095 48.9551L14.5636 50.4269ZM13.8402 50.0157L14.9732 50.6097L15.9018 48.8383L14.7688 48.2443L13.8402 50.0157ZM14.557 49.2499C14.5003 49.3553 14.3991 49.5028 14.2324 49.6942L15.7406 51.0078C15.9699 50.7445 16.1694 50.474 16.318 50.1981L14.557 49.2499ZM14.2308 49.6961C14.1442 49.7961 14.0016 49.9124 13.7693 50.0286L14.6637 51.8174C15.0767 51.6109 15.4475 51.3459 15.7422 51.0059L14.2308 49.6961ZM13.7858 50.0205C13.6399 50.0902 13.3893 50.154 12.9845 50.154V52.154C13.577 52.154 14.1478 52.0638 14.6472 51.8255L13.7858 50.0205ZM11.6535 48.645H14.2055V46.645H11.6535V48.645ZM15.2012 47.5524C15.1493 46.9943 14.9068 46.4919 14.4631 46.1198L13.1779 47.6522C13.1865 47.6594 13.1906 47.6642 13.1922 47.6662C13.1937 47.668 13.1946 47.6694 13.1954 47.6711C13.1964 47.673 13.2055 47.6908 13.2098 47.7376L15.2012 47.5524ZM14.4754 46.1303C14.0338 45.7476 13.4929 45.6 12.9515 45.6V47.6C13.0434 47.6 13.0978 47.6122 13.1256 47.6214C13.1507 47.6296 13.1604 47.6372 13.1656 47.6417L14.4754 46.1303ZM12.9515 45.6C12.4071 45.6 11.8542 45.7415 11.4056 46.1303L12.7154 47.6417C12.7163 47.6409 12.7246 47.6331 12.7539 47.6237C12.7862 47.6133 12.8483 47.6 12.9515 47.6V45.6ZM11.4056 46.1303C10.991 46.4896 10.7515 46.962 10.6665 47.4843L12.6405 47.8057C12.6582 47.6973 12.69 47.6637 12.7154 47.6417L11.4056 46.1303ZM17.2657 51L16.2755 51.1397L16.3969 52H17.2657V51ZM16.4957 45.544V44.544H15.3446L15.5055 45.6837L16.4957 45.544ZM17.8707 45.544L18.865 45.4376L18.7693 44.544H17.8707V45.544ZM18.3547 50.065L17.3603 50.1714L17.456 51.065H18.3547V50.065ZM18.5527 50.065V51.065H19.409L19.5408 50.2189L18.5527 50.065ZM19.2567 45.544V44.544H18.4003L18.2686 45.3901L19.2567 45.544ZM21.4787 45.544L22.4668 45.3901L22.335 44.544H21.4787V45.544ZM22.1827 50.065L21.1946 50.2189L21.3263 51.065H22.1827V50.065ZM22.3807 50.065V51.065H23.2793L23.375 50.1714L22.3807 50.065ZM22.8647 45.544V44.544H21.966L21.8703 45.4376L22.8647 45.544ZM24.2397 45.544L25.2299 45.6837L25.3907 44.544H24.2397V45.544ZM23.4697 51V52H24.3384L24.4599 51.1397L23.4697 51ZM21.1707 51L20.1826 51.1539L20.3143 52H21.1707V51ZM20.4667 46.479L21.4548 46.3251L21.323 45.479H20.4667V46.479ZM20.2687 46.479V45.479H19.4123L19.2806 46.3251L20.2687 46.479ZM19.5647 51V52H20.421L20.5528 51.1539L19.5647 51ZM18.2559 50.8603L17.4859 45.4043L15.5055 45.6837L16.2755 51.1397L18.2559 50.8603ZM16.4957 46.544H17.8707V44.544H16.4957V46.544ZM16.8763 45.6504L17.3603 50.1714L19.349 49.9586L18.865 45.4376L16.8763 45.6504ZM18.3547 51.065H18.5527V49.065H18.3547V51.065ZM19.5408 50.2189L20.2448 45.6979L18.2686 45.3901L17.5646 49.9111L19.5408 50.2189ZM19.2567 46.544H21.4787V44.544H19.2567V46.544ZM20.4906 45.6979L21.1946 50.2189L23.1708 49.9111L22.4668 45.3901L20.4906 45.6979ZM22.1827 51.065H22.3807V49.065H22.1827V51.065ZM23.375 50.1714L23.859 45.6504L21.8703 45.4376L21.3863 49.9586L23.375 50.1714ZM22.8647 46.544H24.2397V44.544H22.8647V46.544ZM23.2495 45.4043L22.4795 50.8603L24.4599 51.1397L25.2299 45.6837L23.2495 45.4043ZM23.4697 50H21.1707V52H23.4697V50ZM22.1588 50.8461L21.4548 46.3251L19.4786 46.6329L20.1826 51.1539L22.1588 50.8461ZM20.4667 45.479H20.2687V47.479H20.4667V45.479ZM19.2806 46.3251L18.5766 50.8461L20.5528 51.1539L21.2568 46.6329L19.2806 46.3251ZM19.5647 50H17.2657V52H19.5647V50ZM28.7522 51L27.7607 51.1303L27.875 52H28.7522V51ZM27.7402 43.3V42.3H26.6001L26.7487 43.4303L27.7402 43.3ZM29.1812 43.3L30.175 43.1889L30.0756 42.3H29.1812V43.3ZM29.9292 49.988L28.9354 50.0991L29.0348 50.988H29.9292V49.988ZM30.1272 49.988V50.988H30.9928L31.1168 50.1312L30.1272 49.988ZM31.0952 43.3V42.3H30.2295L30.1055 43.1568L31.0952 43.3ZM33.6032 43.3L34.5928 43.1568L34.4688 42.3H33.6032V43.3ZM34.5712 49.988L33.5815 50.1312L33.7055 50.988H34.5712V49.988ZM34.7692 49.988V50.988H35.6635L35.763 50.0991L34.7692 49.988ZM35.5172 43.3V42.3H34.6228L34.5234 43.1889L35.5172 43.3ZM36.9582 43.3L37.9496 43.4303L38.0982 42.3H36.9582V43.3ZM35.9462 51V52H36.8233L36.9376 51.1303L35.9462 51ZM33.4382 51L32.4485 51.1432L32.5724 52H33.4382V51ZM32.4482 44.158L33.4379 44.0148L33.3139 43.158H32.4482V44.158ZM32.2502 44.158V43.158H31.3844L31.2605 44.0148L32.2502 44.158ZM31.2602 51V52H32.1259L32.2499 51.1432L31.2602 51ZM29.7436 50.8697L28.7316 43.1697L26.7487 43.4303L27.7607 51.1303L29.7436 50.8697ZM27.7402 44.3H29.1812V42.3H27.7402V44.3ZM28.1874 43.4111L28.9354 50.0991L30.923 49.8769L30.175 43.1889L28.1874 43.4111ZM29.9292 50.988H30.1272V48.988H29.9292V50.988ZM31.1168 50.1312L32.0848 43.4432L30.1055 43.1568L29.1375 49.8448L31.1168 50.1312ZM31.0952 44.3H33.6032V42.3H31.0952V44.3ZM32.6135 43.4432L33.5815 50.1312L35.5608 49.8448L34.5928 43.1568L32.6135 43.4432ZM34.5712 50.988H34.7692V48.988H34.5712V50.988ZM35.763 50.0991L36.511 43.4111L34.5234 43.1889L33.7754 49.8769L35.763 50.0991ZM35.5172 44.3H36.9582V42.3H35.5172V44.3ZM35.9667 43.1697L34.9547 50.8697L36.9376 51.1303L37.9496 43.4303L35.9667 43.1697ZM35.9462 50H33.4382V52H35.9462V50ZM34.4278 50.8568L33.4379 44.0148L31.4585 44.3012L32.4485 51.1432L34.4278 50.8568ZM32.4482 43.158H32.2502V45.158H32.4482V43.158ZM31.2605 44.0148L30.2705 50.8568L32.2499 51.1432L33.2398 44.3012L31.2605 44.0148ZM31.2602 50H28.7522V52H31.2602V50ZM38.6475 50.956L38.2353 51.8671L38.2444 51.8712L38.2536 51.8751L38.6475 50.956ZM37.9105 50.362L37.0785 50.9167L37.0874 50.9301L37.0968 50.9432L37.9105 50.362ZM37.9105 48.47L37.0968 47.8888L37.0935 47.8933L37.9105 48.47ZM38.6585 47.898L39.0262 48.828L39.0371 48.8235L38.6585 47.898ZM41.2545 47.7V48.7H42.2545V47.7H41.2545ZM41.0125 46.765L40.2899 47.4562L40.2976 47.4643L40.3054 47.4721L41.0125 46.765ZM39.4725 46.754L40.1468 47.4925L40.1554 47.4847L40.1637 47.4766L39.4725 46.754ZM39.1425 47.359L38.8238 48.3069L39.8942 48.6667L40.122 47.5607L39.1425 47.359ZM37.8665 46.93L36.9129 46.6289L36.6173 47.565L37.5478 47.8779L37.8665 46.93ZM38.2845 46.171L37.5202 45.5261L37.5183 45.5284L38.2845 46.171ZM39.0655 45.61L39.462 46.5281L39.4717 46.5238L39.0655 45.61ZM41.9695 45.929L41.3176 46.6873L41.9695 45.929ZM43.3445 49.856H44.3445V48.856H43.3445V49.856ZM43.3445 51V52H44.3445V51H43.3445ZM41.7495 50.802L41.1495 51.602L41.7495 50.802ZM41.4855 50.263H42.4855V49.263H41.4855V50.263ZM41.2765 50.263V49.263H40.5558L40.3278 49.9468L41.2765 50.263ZM41.0785 50.615L41.8836 51.2082L41.8908 51.1984L41.8977 51.1885L41.0785 50.615ZM40.5945 50.989L41.0417 51.8834L40.5945 50.989ZM40.8805 49.713L41.5406 50.4642L41.5421 50.4628L40.8805 49.713ZM41.2545 48.734H42.2545V47.734H41.2545V48.734ZM39.2525 48.899L39.8525 49.699V49.699L39.2525 48.899ZM39.2635 49.845L38.6343 50.6222H38.6343L39.2635 49.845ZM39.6925 50.154C39.4178 50.154 39.2067 50.1077 39.0414 50.0369L38.2536 51.8751C38.7044 52.0683 39.1899 52.154 39.6925 52.154V50.154ZM39.0597 50.0449C38.9003 49.9728 38.7978 49.8837 38.7243 49.7808L37.0968 50.9432C37.3899 51.3536 37.7787 51.6605 38.2353 51.8671L39.0597 50.0449ZM38.7426 49.8073C38.6945 49.7352 38.6465 49.6176 38.6465 49.405H36.6465C36.6465 49.9404 36.7746 50.4608 37.0785 50.9167L38.7426 49.8073ZM38.6465 49.405C38.6465 49.1903 38.6952 49.0924 38.7275 49.0467L37.0935 47.8933C36.7738 48.3462 36.6465 48.8717 36.6465 49.405H38.6465ZM38.7243 49.0512C38.7871 48.9632 38.876 48.8873 39.0262 48.828L38.2909 46.968C37.8104 47.158 37.4006 47.4635 37.0968 47.8888L38.7243 49.0512ZM39.0371 48.8235C39.2203 48.7486 39.455 48.7 39.7585 48.7V46.7C39.2407 46.7 38.7421 46.7834 38.2799 46.9725L39.0371 48.8235ZM39.7585 48.7H41.2545V46.7H39.7585V48.7ZM42.2545 47.7V47.392H40.2545V47.7H42.2545ZM42.2545 47.392C42.2545 46.9063 42.0926 46.4309 41.7196 46.0579L40.3054 47.4721C40.2985 47.4652 40.2899 47.4552 40.2813 47.442C40.2726 47.4287 40.2659 47.4152 40.2611 47.4028C40.2511 47.377 40.2545 47.3691 40.2545 47.392H42.2545ZM41.7352 46.0738C41.3075 45.6267 40.7298 45.512 40.2425 45.512V47.512C40.2911 47.512 40.3268 47.5149 40.3514 47.5183C40.3635 47.52 40.3724 47.5217 40.3783 47.5231C40.3842 47.5244 40.3869 47.5253 40.3869 47.5253C40.3866 47.5252 40.3747 47.5213 40.3558 47.5098C40.3364 47.498 40.3131 47.4805 40.2899 47.4562L41.7352 46.0738ZM40.2425 45.512C39.7616 45.512 39.2083 45.6229 38.7813 46.0314L40.1637 47.4766C40.1438 47.4957 40.1248 47.5089 40.11 47.5173C40.0957 47.5254 40.0883 47.5275 40.0913 47.5265C40.0998 47.5238 40.1448 47.512 40.2425 47.512V45.512ZM38.7982 46.0155C38.4561 46.328 38.2518 46.7262 38.1631 47.1573L40.122 47.5607C40.1298 47.5225 40.1386 47.5047 40.1414 47.4996C40.1437 47.4954 40.1447 47.4944 40.1468 47.4925L38.7982 46.0155ZM39.4612 46.4111L38.1852 45.9821L37.5478 47.8779L38.8238 48.3069L39.4612 46.4111ZM38.8201 47.2311C38.868 47.0794 38.943 46.9421 39.0507 46.8136L37.5183 45.5284C37.2447 45.8546 37.041 46.2232 36.9129 46.6289L38.8201 47.2311ZM39.0488 46.8159C39.1334 46.7156 39.2608 46.6149 39.462 46.5281L38.6691 44.6919C38.2249 44.8837 37.8316 45.1571 37.5202 45.5261L39.0488 46.8159ZM39.4717 46.5238C39.6416 46.4483 39.895 46.39 40.2645 46.39V44.39C39.6954 44.39 39.1494 44.4784 38.6594 44.6962L39.4717 46.5238ZM40.2645 46.39C40.818 46.39 41.1302 46.5262 41.3176 46.6873L42.6214 45.1707C41.9728 44.6131 41.1484 44.39 40.2645 44.39V46.39ZM41.3176 46.6873C41.4634 46.8126 41.5965 47.0253 41.5965 47.491H43.5965C43.5965 46.5927 43.3116 45.764 42.6214 45.1707L41.3176 46.6873ZM41.5965 47.491V49.526H43.5965V47.491H41.5965ZM41.5965 49.526C41.5965 49.7736 41.6529 50.1456 41.9425 50.4558C42.2441 50.779 42.6294 50.856 42.9045 50.856V48.856C42.9743 48.856 43.2056 48.878 43.4046 49.0912C43.5914 49.2914 43.5965 49.4984 43.5965 49.526H41.5965ZM42.9045 50.856H43.3445V48.856H42.9045V50.856ZM42.3445 49.856V51H44.3445V49.856H42.3445ZM43.3445 50H42.4205V52H43.3445V50ZM42.4205 50C42.3654 50 42.3386 49.9933 42.3323 49.9914C42.3278 49.9901 42.3366 49.9923 42.3495 50.002L41.1495 51.602C41.5357 51.8916 41.9843 52 42.4205 52V50ZM42.3495 50.002C42.3709 50.018 42.4127 50.0573 42.4459 50.1238C42.4792 50.1903 42.4855 50.2473 42.4855 50.274H40.4855C40.4855 50.8088 40.7217 51.2811 41.1495 51.602L42.3495 50.002ZM42.4855 50.274V50.263H40.4855V50.274H42.4855ZM41.4855 49.263H41.2765V51.263H41.4855V49.263ZM40.3278 49.9468C40.3347 49.9263 40.34 49.9147 40.3406 49.9134C40.3414 49.9117 40.3395 49.9159 40.3334 49.9267C40.3208 49.9493 40.2975 49.9869 40.2593 50.0415L41.8977 51.1885C42.0145 51.0217 42.1488 50.8084 42.2252 50.5792L40.3278 49.9468ZM40.2735 50.0218C40.2859 50.0049 40.289 50.0063 40.2691 50.0217C40.2489 50.0373 40.2108 50.0628 40.1473 50.0946L41.0417 51.8834C41.3474 51.7306 41.6561 51.517 41.8836 51.2082L40.2735 50.0218ZM40.1473 50.0946C40.1218 50.1073 39.9958 50.154 39.6925 50.154V52.154C40.1519 52.154 40.6273 52.0907 41.0417 51.8834L40.1473 50.0946ZM39.9345 51.032C40.5136 51.032 41.0802 50.8688 41.5406 50.4642L40.2204 48.9618C40.1969 48.9825 40.1328 49.032 39.9345 49.032V51.032ZM41.5421 50.4628C42.0254 50.0364 42.2545 49.4642 42.2545 48.844H40.2545C40.2545 48.9066 40.2441 48.9317 40.2425 48.9354C40.2413 48.9382 40.24 48.9404 40.2379 48.9433C40.2357 48.9463 40.2303 48.9531 40.2189 48.9632L41.5421 50.4628ZM42.2545 48.844V48.734H40.2545V48.844H42.2545ZM41.2545 47.734H39.8575V49.734H41.2545V47.734ZM39.8575 47.734C39.4689 47.734 39.0295 47.8163 38.6525 48.099L39.8525 49.699C39.8328 49.7138 39.8149 49.7239 39.8009 49.7305C39.7871 49.7371 39.7784 49.7396 39.7769 49.74C39.7755 49.7404 39.7808 49.7388 39.7945 49.7372C39.8081 49.7355 39.8288 49.734 39.8575 49.734V47.734ZM38.6525 48.099C38.2316 48.4147 38.0325 48.8775 38.0325 49.361H40.0325C40.0325 49.3869 40.0272 49.4497 39.9904 49.5269C39.9524 49.6068 39.8986 49.6644 39.8525 49.699L38.6525 48.099ZM38.0325 49.361C38.0325 49.861 38.246 50.3079 38.6343 50.6222L39.8927 49.0678C39.9188 49.0889 39.9604 49.132 39.9927 49.1998C40.0251 49.2675 40.0325 49.3272 40.0325 49.361H38.0325ZM38.6343 50.6222C39.0343 50.946 39.5183 51.032 39.9345 51.032V49.032C39.8963 49.032 39.8676 49.03 39.8473 49.0275C39.827 49.0251 39.8169 49.0224 39.8152 49.022C39.8127 49.0213 39.8468 49.0306 39.8927 49.0678L38.6343 50.6222ZM45.1904 51L44.2375 51.3035L44.4594 52H45.1904V51ZM43.4524 45.544V44.544H42.0843L42.4995 45.8475L43.4524 45.544ZM44.9264 45.544L45.8882 45.2702L45.6814 44.544H44.9264V45.544ZM46.1914 49.988L45.2296 50.2618L45.4363 50.988H46.1914V49.988ZM46.3894 49.988V50.988H47.1444L47.3512 50.2618L46.3894 49.988ZM47.6544 45.544V44.544H46.8993L46.6926 45.2702L47.6544 45.544ZM49.1284 45.544L50.0812 45.8475L50.4964 44.544H49.1284V45.544ZM47.3904 51V52H48.1213L48.3432 51.3035L47.3904 51ZM46.1432 50.6965L44.4052 45.2405L42.4995 45.8475L44.2375 51.3035L46.1432 50.6965ZM43.4524 46.544H44.9264V44.544H43.4524V46.544ZM43.9646 45.8178L45.2296 50.2618L47.1532 49.7142L45.8882 45.2702L43.9646 45.8178ZM46.1914 50.988H46.3894V48.988H46.1914V50.988ZM47.3512 50.2618L48.6162 45.8178L46.6926 45.2702L45.4276 49.7142L47.3512 50.2618ZM47.6544 46.544H49.1284V44.544H47.6544V46.544ZM48.1755 45.2405L46.4375 50.6965L48.3432 51.3035L50.0812 45.8475L48.1755 45.2405ZM47.3904 50H45.1904V52H47.3904V50ZM50.9566 50.813L50.4605 51.6812L50.4696 51.6865L50.4788 51.6915L50.9566 50.813ZM49.9886 49.834L49.1067 50.3054L49.1115 50.3145L49.1166 50.3235L49.9886 49.834ZM49.9886 46.721L50.8671 47.1988L50.8705 47.1924L49.9886 46.721ZM50.9456 45.742L51.43 46.617L51.4417 46.6102L50.9456 45.742ZM53.7726 45.753L53.2511 46.6064L53.2628 46.6133L53.7726 45.753ZM54.6966 46.743L53.8084 47.2024L53.8117 47.2087L54.6966 46.743ZM55.0266 48.679V49.679H56.0266V48.679H55.0266ZM51.0556 48.679V47.679H50.0156L50.0564 48.7182L51.0556 48.679ZM53.7176 49.13L54.1819 48.2443L53.2525 47.7571L52.8106 48.7089L53.7176 49.13ZM54.8506 49.724L55.7311 50.1981L56.2104 49.3078L55.3149 48.8383L54.8506 49.724ZM54.3996 50.351L53.6455 49.6942L53.6439 49.6961L54.3996 50.351ZM53.6296 50.923L54.0603 51.8255L54.0686 51.8215L54.0768 51.8174L53.6296 50.923ZM51.0666 47.645L50.0796 47.4843L49.8906 48.645H51.0666V47.645ZM53.6186 47.645V48.645H54.7159L54.6143 47.5524L53.6186 47.645ZM53.2336 46.886L52.5787 47.6417L52.5848 47.647L52.591 47.6522L53.2336 46.886ZM52.3976 50.154C51.9981 50.154 51.6862 50.0715 51.4344 49.9345L50.4788 51.6915C51.063 52.0092 51.7118 52.154 52.3976 52.154V50.154ZM51.4527 49.9448C51.2016 49.8012 51.0078 49.6068 50.8606 49.3445L49.1166 50.3235C49.4387 50.8972 49.8903 51.3554 50.4605 51.6812L51.4527 49.9448ZM50.8705 49.3626C50.7339 49.1071 50.6476 48.7761 50.6476 48.338H48.6476C48.6476 49.0439 48.7886 49.7103 49.1067 50.3054L50.8705 49.3626ZM50.6476 48.338V48.206H48.6476V48.338H50.6476ZM50.6476 48.206C50.6476 47.7673 50.7341 47.4432 50.8671 47.1988L49.1101 46.2432C48.7884 46.8348 48.6476 47.5007 48.6476 48.206H50.6476ZM50.8705 47.1924C51.0096 46.9321 51.1927 46.7482 51.4299 46.6169L50.4613 44.8671C49.8771 45.1905 49.4222 45.6592 49.1067 46.2496L50.8705 47.1924ZM51.4417 46.6102C51.6802 46.474 51.981 46.39 52.3756 46.39V44.39C51.6849 44.39 51.0323 44.5407 50.4495 44.8738L51.4417 46.6102ZM52.3756 46.39C52.7557 46.39 53.035 46.4742 53.2512 46.6063L54.2941 44.8997C53.7182 44.5478 53.0662 44.39 52.3756 44.39V46.39ZM53.2628 46.6133C53.4909 46.7485 53.6708 46.9365 53.8084 47.2024L55.5848 46.2836C55.2824 45.6989 54.8463 45.2269 54.2824 44.8927L53.2628 46.6133ZM53.8117 47.2087C53.9436 47.4594 54.0266 47.7818 54.0266 48.206H56.0266C56.0266 47.5155 55.8896 46.8626 55.5815 46.2773L53.8117 47.2087ZM54.0266 48.206V48.679H56.0266V48.206H54.0266ZM55.0266 47.679H51.0556V49.679H55.0266V47.679ZM50.0564 48.7182C50.081 49.3459 50.3288 49.9123 50.8092 50.3394L52.138 48.8446C52.0904 48.8023 52.0596 48.7601 52.0548 48.6398L50.0564 48.7182ZM50.8092 50.3394C51.2715 50.7503 51.8365 50.944 52.4416 50.944V48.944C52.284 48.944 52.2037 48.903 52.138 48.8446L50.8092 50.3394ZM52.4416 50.944C52.9461 50.944 53.529 50.8388 53.9767 50.4269L52.6225 48.9551C52.6635 48.9174 52.6896 48.9143 52.6648 48.9216C52.6366 48.9299 52.5675 48.944 52.4416 48.944V50.944ZM53.9767 50.4269C54.2468 50.1784 54.4687 49.8869 54.6246 49.5511L52.8106 48.7089C52.7758 48.7838 52.719 48.8663 52.6225 48.9551L53.9767 50.4269ZM53.2533 50.0157L54.3863 50.6097L55.3149 48.8383L54.1819 48.2443L53.2533 50.0157ZM53.9701 49.2499C53.9134 49.3553 53.8122 49.5028 53.6455 49.6942L55.1537 51.0078C55.383 50.7445 55.5825 50.474 55.7311 50.1981L53.9701 49.2499ZM53.6439 49.6961C53.5573 49.7961 53.4147 49.9124 53.1824 50.0286L54.0768 51.8174C54.4898 51.6109 54.8606 51.3459 55.1553 51.0059L53.6439 49.6961ZM53.1989 50.0205C53.0529 50.0902 52.8024 50.154 52.3976 50.154V52.154C52.9901 52.154 53.5609 52.0638 54.0603 51.8255L53.1989 50.0205ZM51.0666 48.645H53.6186V46.645H51.0666V48.645ZM54.6143 47.5524C54.5624 46.9943 54.3199 46.4919 53.8762 46.1198L52.591 47.6522C52.5996 47.6594 52.6037 47.6642 52.6053 47.6662C52.6068 47.668 52.6077 47.6694 52.6085 47.6711C52.6095 47.673 52.6185 47.6908 52.6229 47.7376L54.6143 47.5524ZM53.8885 46.1303C53.4469 45.7476 52.906 45.6 52.3646 45.6V47.6C52.4565 47.6 52.5109 47.6122 52.5387 47.6214C52.5638 47.6296 52.5735 47.6372 52.5787 47.6417L53.8885 46.1303ZM52.3646 45.6C51.8202 45.6 51.2673 45.7415 50.8187 46.1303L52.1285 47.6417C52.1294 47.6409 52.1377 47.6331 52.167 47.6237C52.1993 47.6133 52.2614 47.6 52.3646 47.6V45.6ZM50.8187 46.1303C50.4041 46.4896 50.1646 46.962 50.0796 47.4843L52.0536 47.8057C52.0712 47.6973 52.1031 47.6637 52.1285 47.6417L50.8187 46.1303ZM60.1862 50.824L59.733 51.7154L60.1862 50.824ZM59.1632 46.677L60.022 47.1893V47.1893L59.1632 46.677ZM60.1862 45.72L60.6395 46.6114L60.1862 45.72ZM63.1122 45.72L62.659 46.6114H62.659L63.1122 45.72ZM64.1352 46.677L63.2764 47.1893V47.1893L64.1352 46.677ZM64.1352 49.867L63.2764 49.3547V49.3547L64.1352 49.867ZM63.1122 50.824L62.659 49.9326H62.659L63.1122 50.824ZM62.7052 49.515L63.4029 50.2315L63.4123 50.2221L62.7052 49.515ZM62.7052 47.04L61.9887 47.7376L61.998 47.7472L62.0076 47.7565L62.7052 47.04ZM60.5932 47.04L61.2909 47.7565L61.3003 47.7471L60.5932 47.04ZM60.5932 49.515L59.886 50.2222L59.8956 50.2315L60.5932 49.515ZM61.6492 50.154C61.2453 50.154 60.9158 50.0732 60.6395 49.9326L59.733 51.7154C60.3219 52.0148 60.9678 52.154 61.6492 52.154V50.154ZM60.6395 49.9326C60.3755 49.7984 60.1749 49.6111 60.022 49.3547L58.3044 50.3793C58.6501 50.9589 59.1315 51.4096 59.733 51.7154L60.6395 49.9326ZM60.022 49.3547C59.8824 49.1207 59.7892 48.8034 59.7892 48.36H57.7892C57.7892 49.0899 57.9453 49.7773 58.3044 50.3793L60.022 49.3547ZM59.7892 48.36V48.184H57.7892V48.36H59.7892ZM59.7892 48.184C59.7892 47.7406 59.8824 47.4233 60.022 47.1893L58.3044 46.1647C57.9453 46.7667 57.7892 47.4541 57.7892 48.184H59.7892ZM60.022 47.1893C60.1749 46.9329 60.3755 46.7456 60.6395 46.6114L59.733 44.8286C59.1315 45.1344 58.6501 45.5851 58.3044 46.1647L60.022 47.1893ZM60.6395 46.6114C60.9158 46.4708 61.2453 46.39 61.6492 46.39V44.39C60.9678 44.39 60.3219 44.5291 59.733 44.8286L60.6395 46.6114ZM61.6492 46.39C62.0532 46.39 62.3826 46.4708 62.659 46.6114L63.5654 44.8286C62.9765 44.5291 62.3306 44.39 61.6492 44.39V46.39ZM62.659 46.6114C62.9229 46.7456 63.1235 46.9329 63.2764 47.1893L64.994 46.1647C64.6483 45.5851 64.1669 45.1344 63.5654 44.8286L62.659 46.6114ZM63.2764 47.1893C63.416 47.4233 63.5092 47.7406 63.5092 48.184H65.5092C65.5092 47.4541 65.3531 46.7667 64.994 46.1647L63.2764 47.1893ZM63.5092 48.184V48.36H65.5092V48.184H63.5092ZM63.5092 48.36C63.5092 48.8034 63.416 49.1207 63.2764 49.3547L64.994 50.3793C65.3531 49.7773 65.5092 49.0899 65.5092 48.36H63.5092ZM63.2764 49.3547C63.1235 49.6111 62.9229 49.7984 62.659 49.9326L63.5654 51.7154C64.1669 51.4096 64.6483 50.9589 64.994 50.3793L63.2764 49.3547ZM62.659 49.9326C62.3826 50.0732 62.0532 50.154 61.6492 50.154V52.154C62.3306 52.154 62.9765 52.0148 63.5654 51.7154L62.659 49.9326ZM61.6492 50.922C62.3084 50.922 62.9191 50.7024 63.4028 50.2315L62.0076 48.7985C61.9339 48.8702 61.8407 48.922 61.6492 48.922V50.922ZM63.4123 50.2221C63.9303 49.7041 64.1232 49.022 64.1232 48.327H62.1232C62.1232 48.6587 62.0374 48.7686 61.9981 48.8079L63.4123 50.2221ZM64.1232 48.327V48.217H62.1232V48.327H64.1232ZM64.1232 48.217C64.1232 47.5237 63.9309 46.8377 63.4028 46.3235L62.0076 47.7565C62.0368 47.785 62.1232 47.8837 62.1232 48.217H64.1232ZM63.4217 46.3424C62.94 45.8477 62.3183 45.622 61.6492 45.622V47.622C61.8454 47.622 61.9277 47.6749 61.9887 47.7376L63.4217 46.3424ZM61.6492 45.622C60.9819 45.622 60.3681 45.8509 59.8861 46.3329L61.3003 47.7471C61.3756 47.6718 61.4659 47.622 61.6492 47.622V45.622ZM59.8956 46.3235C59.3675 46.8377 59.1752 47.5237 59.1752 48.217H61.1752C61.1752 47.8837 61.2616 47.785 61.2908 47.7565L59.8956 46.3235ZM59.1752 48.217V48.327H61.1752V48.217H59.1752ZM59.1752 48.327C59.1752 49.022 59.3681 49.7041 59.8861 50.2221L61.3003 48.8079C61.261 48.7686 61.1752 48.6587 61.1752 48.327H59.1752ZM59.8956 50.2315C60.3793 50.7024 60.99 50.922 61.6492 50.922V48.922C61.4577 48.922 61.3645 48.8702 61.2908 48.7985L59.8956 50.2315ZM66.5079 51H65.5079V52H66.5079V51ZM66.5079 46.688H67.5079V45.688H66.5079V46.688ZM65.1219 46.688H64.1219V47.688H65.1219V46.688ZM65.1219 45.544V44.544H64.1219V45.544H65.1219ZM66.5079 45.544V46.544H67.5079V45.544H66.5079ZM66.8379 43.641L67.545 44.3481V44.3481L66.8379 43.641ZM69.1479 43.3H70.1479V42.3H69.1479V43.3ZM69.1479 44.444V45.444H70.1479V44.444H69.1479ZM67.8939 45.544H66.8939V46.544H67.8939V45.544ZM69.3239 45.544H70.3239V44.544H69.3239V45.544ZM69.3239 46.688V47.688H70.3239V46.688H69.3239ZM67.8939 46.688V45.688H66.8939V46.688H67.8939ZM67.8939 51V52H68.8939V51H67.8939ZM67.5079 51V46.688H65.5079V51H67.5079ZM66.5079 45.688H65.1219V47.688H66.5079V45.688ZM66.1219 46.688V45.544H64.1219V46.688H66.1219ZM65.1219 46.544H66.5079V44.544H65.1219V46.544ZM67.5079 45.544V44.532H65.5079V45.544H67.5079ZM67.5079 44.532C67.5079 44.4426 67.5211 44.3953 67.5282 44.3761C67.5341 44.3602 67.5388 44.3543 67.545 44.3481L66.1308 42.9339C65.6863 43.3784 65.5079 43.9501 65.5079 44.532H67.5079ZM67.545 44.3481C67.562 44.3311 67.5897 44.3 67.7179 44.3V42.3C67.1275 42.3 66.5685 42.4962 66.1308 42.9339L67.545 44.3481ZM67.7179 44.3H69.1479V42.3H67.7179V44.3ZM68.1479 43.3V44.444H70.1479V43.3H68.1479ZM69.1479 43.444H68.2019V45.444H69.1479V43.444ZM68.2019 43.444C67.9268 43.444 67.5416 43.521 67.2399 43.8442C66.9503 44.1544 66.8939 44.5264 66.8939 44.774H68.8939C68.8939 44.8016 68.8889 45.0086 68.702 45.2088C68.503 45.422 68.2718 45.444 68.2019 45.444V43.444ZM66.8939 44.774V45.544H68.8939V44.774H66.8939ZM67.8939 46.544H69.3239V44.544H67.8939V46.544ZM68.3239 45.544V46.688H70.3239V45.544H68.3239ZM69.3239 45.688H67.8939V47.688H69.3239V45.688ZM66.8939 46.688V51H68.8939V46.688H66.8939ZM67.8939 50H66.5079V52H67.8939V50ZM72.489 51L71.5219 50.7458L71.1922 52H72.489V51ZM74.513 43.3V42.3H73.7419L73.5459 43.0458L74.513 43.3ZM77.043 43.3L78.0102 43.0458L77.8141 42.3H77.043V43.3ZM79.067 51V52H80.3638L80.0342 50.7458L79.067 51ZM77.571 51L76.6001 51.2396L76.7878 52H77.571V51ZM77.153 49.306L78.1239 49.0664L77.9363 48.306H77.153V49.306ZM74.403 49.306V48.306H73.6198L73.4321 49.0664L74.403 49.306ZM73.985 51V52H74.7683L74.9559 51.2396L73.985 51ZM74.744 47.964L73.7737 47.7221L73.4641 48.964H74.744V47.964ZM76.812 47.964V48.964H78.0919L77.7823 47.7221L76.812 47.964ZM75.877 44.213L76.8473 43.9711L76.6583 43.213H75.877V44.213ZM75.679 44.213V43.213H74.8977L74.7087 43.9711L75.679 44.213ZM73.4562 51.2542L75.4802 43.5542L73.5459 43.0458L71.5219 50.7458L73.4562 51.2542ZM74.513 44.3H77.043V42.3H74.513V44.3ZM76.0759 43.5542L78.0999 51.2542L80.0342 50.7458L78.0102 43.0458L76.0759 43.5542ZM79.067 50H77.571V52H79.067V50ZM78.5419 50.7604L78.1239 49.0664L76.1821 49.5456L76.6001 51.2396L78.5419 50.7604ZM77.153 48.306H74.403V50.306H77.153V48.306ZM73.4321 49.0664L73.0141 50.7604L74.9559 51.2396L75.3739 49.5456L73.4321 49.0664ZM73.985 50H72.489V52H73.985V50ZM74.744 48.964H76.812V46.964H74.744V48.964ZM77.7823 47.7221L76.8473 43.9711L74.9067 44.4549L75.8417 48.2059L77.7823 47.7221ZM75.877 43.213H75.679V45.213H75.877V43.213ZM74.7087 43.9711L73.7737 47.7221L75.7143 48.2059L76.6493 44.4549L74.7087 43.9711ZM80.0327 51H79.0327V52H80.0327V51ZM80.0327 45.544V44.544H79.0327V45.544H80.0327ZM81.3967 45.544H82.3967V44.544H81.3967V45.544ZM81.3967 46.16H80.3967V47.16H81.3967V46.16ZM81.5947 46.16V47.16H82.2931L82.5336 46.5043L81.5947 46.16ZM81.9907 45.676L81.5166 44.7955L81.5093 44.7995L81.5021 44.8035L81.9907 45.676ZM83.3107 45.522H84.3107V44.522H83.3107V45.522ZM83.3107 46.754V47.754H84.3107V46.754H83.3107ZM81.7597 47.04L82.3875 47.8184L82.3949 47.8124L82.4023 47.8062L81.7597 47.04ZM81.4187 51V52H82.4187V51H81.4187ZM81.0327 51V45.544H79.0327V51H81.0327ZM80.0327 46.544H81.3967V44.544H80.0327V46.544ZM80.3967 45.544V46.16H82.3967V45.544H80.3967ZM81.3967 47.16H81.5947V45.16H81.3967V47.16ZM82.5336 46.5043C82.5402 46.4862 82.5411 46.4914 82.5282 46.5072C82.522 46.5148 82.5141 46.5229 82.5048 46.5308C82.4954 46.5386 82.4866 46.5444 82.4793 46.5485L81.5021 44.8035C81.0861 45.0364 80.8086 45.3992 80.6558 45.8157L82.5336 46.5043ZM82.4648 46.5565C82.489 46.5434 82.5416 46.522 82.6507 46.522V44.522C82.2611 44.522 81.8737 44.6032 81.5166 44.7955L82.4648 46.5565ZM82.6507 46.522H83.3107V44.522H82.6507V46.522ZM82.3107 45.522V46.754H84.3107V45.522H82.3107ZM83.3107 45.754H82.6287V47.754H83.3107V45.754ZM82.6287 45.754C82.0875 45.754 81.5568 45.9051 81.1171 46.2738L82.4023 47.8062C82.4173 47.7936 82.4659 47.754 82.6287 47.754V45.754ZM81.1319 46.2616C80.5968 46.6931 80.4187 47.3141 80.4187 47.898H82.4187C82.4187 47.7982 82.4336 47.7604 82.4332 47.7613C82.4327 47.7627 82.4288 47.7717 82.4195 47.7845C82.41 47.7976 82.3987 47.8093 82.3875 47.8184L81.1319 46.2616ZM80.4187 47.898V51H82.4187V47.898H80.4187ZM81.4187 50H80.0327V52H81.4187V50ZM85.604 50.67L84.8854 51.3654L84.8968 51.3772L84.9086 51.3886L85.604 50.67ZM85.274 46.688H86.274V45.688H85.274V46.688ZM83.91 46.688H82.91V47.688H83.91V46.688ZM83.91 45.544V44.544H82.91V45.544H83.91ZM85.274 45.544V46.544H86.274V45.544H85.274ZM85.274 43.85V42.85H84.274V43.85H85.274ZM86.66 43.85H87.66V42.85H86.66V43.85ZM86.66 45.544H85.66V46.544H86.66V45.544ZM88.156 45.544H89.156V44.544H88.156V45.544ZM88.156 46.688V47.688H89.156V46.688H88.156ZM86.66 46.688V45.688H85.66V46.688H86.66ZM88.024 49.856H89.024V48.856H88.024V49.856ZM88.024 51V52H89.024V51H88.024ZM86.484 50C86.346 50 86.3145 49.966 86.2994 49.9514L84.9086 51.3886C85.3482 51.814 85.9033 52 86.484 52V50ZM86.3226 49.9746C86.3155 49.9672 86.274 49.9331 86.274 49.768H84.274C84.274 50.3509 84.4526 50.9181 84.8854 51.3654L86.3226 49.9746ZM86.274 49.768V46.688H84.274V49.768H86.274ZM85.274 45.688H83.91V47.688H85.274V45.688ZM84.91 46.688V45.544H82.91V46.688H84.91ZM83.91 46.544H85.274V44.544H83.91V46.544ZM86.274 45.544V43.85H84.274V45.544H86.274ZM85.274 44.85H86.66V42.85H85.274V44.85ZM85.66 43.85V45.544H87.66V43.85H85.66ZM86.66 46.544H88.156V44.544H86.66V46.544ZM87.156 45.544V46.688H89.156V45.544H87.156ZM88.156 45.688H86.66V47.688H88.156V45.688ZM85.66 46.688V49.526H87.66V46.688H85.66ZM85.66 49.526C85.66 49.7736 85.7164 50.1456 86.006 50.4558C86.3076 50.779 86.6929 50.856 86.968 50.856V48.856C87.0378 48.856 87.2691 48.878 87.4681 49.0912C87.655 49.2914 87.66 49.4984 87.66 49.526H85.66ZM86.968 50.856H88.024V48.856H86.968V50.856ZM87.024 49.856V51H89.024V49.856H87.024ZM88.024 50H86.484V52H88.024V50Z" fill="white"/>
<rect x="17.5" y="14.5" width="15" height="15" fill="#D64E7C" stroke="white"/>
<rect x="59.5" y="6.5" width="15" height="15" fill="#F88D6E" stroke="white"/>
<defs>
<linearGradient id="paint0_linear_9_46" x1="45.5" y1="0" x2="45.5" y2="38" gradientUnits="userSpaceOnUse">
<stop stop-color="#B91A87"/>
<stop offset="1" stop-color="#FD966B"/>
</linearGradient>
</defs>
</svg>
