<svg width="314" height="198" viewBox="0 0 314 198" fill="none" xmlns="http://www.w3.org/2000/svg">
<circle cx="23.5182" cy="8.16765" r="7.36052" fill="white"/>
<circle cx="64.382" cy="13.4975" r="4.06098" fill="white"/>
<circle cx="64.382" cy="56.8994" r="4.06098" fill="white"/>
<circle cx="66.4123" cy="100.301" r="4.06098" fill="white"/>
<circle cx="66.4123" cy="143.703" r="4.06098" fill="white"/>
<circle cx="68.4428" cy="187.866" r="4.06098" fill="white"/>
<circle cx="179.104" cy="17.5585" r="4.06098" fill="white"/>
<circle cx="179.104" cy="60.9601" r="4.06098" fill="white"/>
<circle cx="179.104" cy="102.331" r="4.06098" fill="white"/>
<circle cx="179.866" cy="143.956" r="4.06098" fill="white"/>
<circle cx="182.15" cy="187.104" r="4.06098" fill="white"/>
<circle cx="282.152" cy="103.854" r="4.06098" fill="white"/>
<circle cx="283.928" cy="181.774" r="4.06098" fill="white"/>
<circle cx="282.152" cy="25.6804" r="4.06098" fill="white"/>
<circle cx="282.152" cy="64.7673" r="4.06098" fill="white"/>
<circle cx="283.928" cy="143.703" r="4.06098" fill="white"/>
<circle cx="213.369" cy="87.6103" r="4.06098" fill="white"/>
<circle cx="213.369" cy="129.236" r="4.06098" fill="white"/>
<circle cx="213.369" cy="45.9855" r="4.06098" fill="white"/>
<circle cx="269.715" cy="127.459" r="4.06098" fill="white"/>
<circle cx="265.654" cy="65.0212" r="4.06098" fill="white"/>
<circle cx="148.901" cy="37.8635" r="4.06098" fill="white"/>
<circle cx="151.439" cy="89.8947" r="4.06098" fill="white"/>
<circle cx="37.9855" cy="83.5495" r="4.06098" fill="white"/>
<circle cx="37.9855" cy="40.1476" r="4.06098" fill="white"/>
<circle cx="87.4785" cy="75.4274" r="4.06098" fill="white"/>
<circle cx="97.631" cy="108.423" r="4.06098" fill="white"/>
<circle cx="89.5092" cy="162.992" r="4.06098" fill="white"/>
<circle cx="105.753" cy="44.2087" r="4.06098" fill="white"/>
<circle cx="87.4785" cy="27.9648" r="4.06098" fill="white"/>
<circle cx="37.9855" cy="152.078" r="4.06098" fill="white"/>
<circle cx="4.98993" cy="69.0822" r="4.06098" fill="white"/>
<circle cx="4.98993" cy="133.297" r="4.06098" fill="white"/>
<circle cx="306.771" cy="108.423" r="4.06098" fill="white"/>
<circle cx="306.771" cy="52.8383" r="4.06098" fill="white"/>
<circle cx="309.056" cy="161.216" r="4.06098" fill="white"/>
<circle cx="21.7416" cy="190.404" r="7.36052" fill="white"/>
<circle cx="250.045" cy="19.7159" r="6.21837" fill="white"/>
<circle cx="252.075" cy="181.647" r="6.21837" fill="white"/>
<circle cx="250.045" cy="19.7159" r="6.21837" fill="white"/>
<circle cx="23.2646" cy="99.0319" r="7.36052" fill="white"/>
</svg>
