<svg width="48" height="48" viewBox="0 0 48 48" fill="none" xmlns="http://www.w3.org/2000/svg">
<path fill-rule="evenodd" clip-rule="evenodd" d="M13.191 7.76955C17.2094 5.09411 22.0774 4.00436 26.853 4.71119C31.6285 5.41802 35.9721 7.87117 39.0433 11.5959C42.1144 15.3207 43.6946 20.0522 43.4783 24.875C43.2619 29.6977 41.2643 34.2688 37.872 37.7035C37.464 38.1303 37.24 38.7003 37.2485 39.2906C37.2569 39.8809 37.497 40.4443 37.917 40.8592C38.337 41.2741 38.9033 41.5073 39.4937 41.5085C40.0841 41.5097 40.6513 41.2788 41.073 40.8655C44.4004 37.4976 46.6573 33.2208 47.5599 28.5733C48.4624 23.9257 47.9702 19.1151 46.1452 14.7466C44.3202 10.3781 41.2439 6.64693 37.3035 4.02262C33.363 1.3983 28.7344 -0.00195313 24 -0.00195312C19.2656 -0.00195313 14.637 1.3983 10.6965 4.02262C6.75608 6.64693 3.67981 10.3781 1.85481 14.7466C0.0298072 19.1151 -0.46239 23.9257 0.440146 28.5733C1.34268 33.2208 3.59963 37.4976 6.92701 40.8655C7.13334 41.0813 7.38055 41.2539 7.65424 41.3732C7.92793 41.4925 8.22262 41.5561 8.52114 41.5603C8.81966 41.5646 9.11605 41.5094 9.39303 41.398C9.67 41.2865 9.92203 41.1211 10.1344 40.9113C10.3468 40.7015 10.5154 40.4515 10.6302 40.1759C10.745 39.9003 10.8038 39.6046 10.8032 39.3061C10.8026 39.0075 10.7426 38.7121 10.6267 38.4369C10.5108 38.1618 10.3412 37.9125 10.128 37.7035C8.10698 35.6577 6.56347 33.1902 5.60806 30.4778C4.65266 27.7653 4.30901 24.8752 4.60174 22.0144C4.89448 19.1535 5.81635 16.3929 7.3013 13.9302C8.78625 11.4675 10.7975 9.36367 13.191 7.76955ZM24 13.4995C26.0673 13.4998 28.0885 14.1104 29.8102 15.2546C31.532 16.3988 32.8777 18.0258 33.6786 19.9316C34.4795 21.8375 34.7 23.9373 34.3124 25.968C33.9249 27.9986 32.9465 29.8696 31.5 31.3465C31.2932 31.5577 31.13 31.8076 31.0197 32.0818C30.9094 32.356 30.8542 32.6493 30.8573 32.9449C30.8604 33.2405 30.9216 33.5325 31.0375 33.8044C31.1535 34.0763 31.3218 34.3227 31.533 34.5295C31.7442 34.7364 31.994 34.8996 32.2683 35.0099C32.5425 35.1202 32.8358 35.1753 33.1313 35.1723C33.4269 35.1692 33.719 35.108 33.9909 34.992C34.2628 34.8761 34.5092 34.7077 34.716 34.4965C36.7827 32.3866 38.1805 29.7135 38.7341 26.8124C39.2878 23.9112 38.9726 20.9112 37.8283 18.1885C36.6839 15.4657 34.7612 13.1414 32.3012 11.5069C29.8412 9.87239 26.9535 9.00049 24 9.00049C21.0465 9.00049 18.1588 9.87239 15.6988 11.5069C13.2388 13.1414 11.3161 15.4657 10.1718 18.1885C9.02739 20.9112 8.71227 23.9112 9.26592 26.8124C9.81957 29.7135 11.2174 32.3866 13.284 34.4965C13.7034 34.9136 14.2701 35.1488 14.8615 35.1512C15.453 35.1536 16.0216 34.923 16.4443 34.5094C16.867 34.0957 17.1099 33.5322 17.1203 32.9409C17.1307 32.3495 16.9079 31.7779 16.5 31.3495C15.0525 29.8728 14.0733 28.0015 13.6851 25.9703C13.297 23.9392 13.5173 21.8387 14.3183 19.9322C15.1193 18.0258 16.4654 16.3983 18.1878 15.2539C19.9102 14.1096 21.9321 13.4993 24 13.4995ZM30 23.9995C30 25.5908 29.3679 27.117 28.2427 28.2422C27.1174 29.3674 25.5913 29.9995 24 29.9995C22.4087 29.9995 20.8826 29.3674 19.7574 28.2422C18.6322 27.117 18 25.5908 18 23.9995C18 22.4083 18.6322 20.8821 19.7574 19.7569C20.8826 18.6317 22.4087 17.9995 24 17.9995C25.5913 17.9995 27.1174 18.6317 28.2427 19.7569C29.3679 20.8821 30 22.4083 30 23.9995ZM26.25 36.7495C26.25 36.1528 26.013 35.5805 25.591 35.1586C25.169 34.7366 24.5967 34.4995 24 34.4995C23.4033 34.4995 22.831 34.7366 22.409 35.1586C21.9871 35.5805 21.75 36.1528 21.75 36.7495V45.7495C21.75 46.3463 21.9871 46.9186 22.409 47.3405C22.831 47.7625 23.4033 47.9995 24 47.9995C24.5967 47.9995 25.169 47.7625 25.591 47.3405C26.013 46.9186 26.25 46.3463 26.25 45.7495V36.7495Z" fill="white"/>
</svg>
